STARTFONT 2.1
FONT -FontForge-Marathon Shapiro Wide 65-Thin-R-Normal--20-720-20-20-P-146-ISO10646-1
SIZE 72 20 20
FONTBOUNDINGBOX 33 30 -2 -9
COMMENT "Generated by fontforge, http://fontforge.sourceforge.net"
COMMENT "Copyright (c) 2020 by Oliver Jeschke. All rights reserved."
STARTPROPERTIES 39
FOUNDRY "FontForge"
FAMILY_NAME "Marathon Shapiro Wide 65"
WEIGHT_NAME "Thin"
SLANT "R"
SETWIDTH_NAME "Normal"
ADD_STYLE_NAME ""
PIXEL_SIZE 20
POINT_SIZE 720
RESOLUTION_X 20
RESOLUTION_Y 20
SPACING "P"
AVERAGE_WIDTH 146
CHARSET_REGISTRY "ISO10646"
CHARSET_ENCODING "1"
FONTNAME_REGISTRY ""
CHARSET_COLLECTIONS "ISO8859-2 ISO8859-5 ISO8859-9 ISO8859-4 ISO10646-1"
FONT_NAME "MarathonShapiro-Wide65"
FACE_NAME "Marathon Shapiro Wide 65"
COPYRIGHT "Copyright (c) 2020 by Oliver Jeschke. All rights reserved."
FONT_VERSION "2.000"
FONT_ASCENT 16
FONT_DESCENT 4
UNDERLINE_POSITION -2
UNDERLINE_THICKNESS 1
X_HEIGHT 10
CAP_HEIGHT 13
RAW_ASCENT 800
RAW_DESCENT 200
NORM_SPACE 7
RELATIVE_WEIGHT 3
RELATIVE_SETWIDTH 70
SUPERSCRIPT_X 0
SUPERSCRIPT_Y 7
SUPERSCRIPT_SIZE 12
SUBSCRIPT_X 0
SUBSCRIPT_Y 1
SUBSCRIPT_SIZE 12
AVG_LOWERCASE_WIDTH 141
AVG_UPPERCASE_WIDTH 180
ENDPROPERTIES
CHARS 560
STARTCHAR nonmarkingreturn
ENCODING 13
SWIDTH 141 0
DWIDTH 3 0
BBX 1 1 0 0
BITMAP
00
ENDCHAR
STARTCHAR space
ENCODING 32
SWIDTH 338 0
DWIDTH 7 0
BBX 1 1 0 0
BITMAP
00
ENDCHAR
STARTCHAR exclam
ENCODING 33
SWIDTH 324 0
DWIDTH 6 0
BBX 4 14 1 0
BITMAP
F0
F0
F0
F0
F0
70
70
70
70
00
00
F0
F0
F0
ENDCHAR
STARTCHAR quotedbl
ENCODING 34
SWIDTH 462 0
DWIDTH 9 0
BBX 7 6 1 8
BITMAP
E6
E6
E6
E6
E6
E6
ENDCHAR
STARTCHAR numbersign
ENCODING 35
SWIDTH 713 0
DWIDTH 14 0
BBX 14 14 0 0
BITMAP
0630
0630
0E30
0E70
3FFC
7FF8
0C60
1CE0
7FF8
FFF0
18C0
39C0
31C0
3180
ENDCHAR
STARTCHAR dollar
ENCODING 36
SWIDTH 800 0
DWIDTH 16 0
BBX 15 18 0 -2
BITMAP
0100
0100
1FF0
3FFC
7FFE
791E
7900
7FF0
3FFC
0FFE
011E
F11E
791E
7FFE
3FFC
0FF0
0100
0100
ENDCHAR
STARTCHAR percent
ENCODING 37
SWIDTH 1096 0
DWIDTH 22 0
BBX 20 14 1 0
BITMAP
7C0700
FF0E00
E70C00
C31800
C33800
E73000
FF67C0
3CEFF0
00CE70
01CC30
018C30
030E70
070FF0
0E07C0
ENDCHAR
STARTCHAR ampersand
ENCODING 38
SWIDTH 913 0
DWIDTH 18 0
BBX 17 14 1 0
BITMAP
0FE000
3FF000
3FF800
387800
3C7800
1FF000
0FC000
7F8E00
FBEE00
F0FE00
F07C00
FFFE00
7FFF00
1FCF80
ENDCHAR
STARTCHAR quotesingle
ENCODING 39
SWIDTH 220 0
DWIDTH 4 0
BBX 3 6 1 8
BITMAP
E0
E0
E0
E0
E0
E0
ENDCHAR
STARTCHAR parenleft
ENCODING 40
SWIDTH 413 0
DWIDTH 8 0
BBX 8 18 0 -4
BITMAP
0F
1C
3C
38
78
78
70
70
F0
F0
70
70
78
78
38
3C
1C
0F
ENDCHAR
STARTCHAR parenright
ENCODING 41
SWIDTH 411 0
DWIDTH 8 0
BBX 8 18 0 -4
BITMAP
F0
38
3C
1C
1E
0E
0F
0F
0F
0F
0F
0F
0E
1E
1C
3C
38
F0
ENDCHAR
STARTCHAR asterisk
ENCODING 42
SWIDTH 499 0
DWIDTH 10 0
BBX 8 9 1 5
BITMAP
18
99
FF
7E
3C
7E
FF
99
18
ENDCHAR
STARTCHAR plus
ENCODING 43
SWIDTH 674 0
DWIDTH 13 0
BBX 11 10 1 1
BITMAP
0E00
0E00
0E00
FFE0
FFE0
FFE0
0E00
0E00
0E00
0E00
ENDCHAR
STARTCHAR comma
ENCODING 44
SWIDTH 328 0
DWIDTH 7 0
BBX 4 6 1 -3
BITMAP
F0
F0
F0
30
F0
E0
ENDCHAR
STARTCHAR hyphen
ENCODING 45
SWIDTH 411 0
DWIDTH 8 0
BBX 7 3 1 4
BITMAP
FE
FE
FE
ENDCHAR
STARTCHAR period
ENCODING 46
SWIDTH 328 0
DWIDTH 7 0
BBX 4 3 1 0
BITMAP
F0
F0
F0
ENDCHAR
STARTCHAR slash
ENCODING 47
SWIDTH 466 0
DWIDTH 9 0
BBX 9 14 0 0
BITMAP
0380
0700
0700
0600
0E00
0E00
1C00
1C00
3800
3800
3000
7000
7000
E000
ENDCHAR
STARTCHAR zero
ENCODING 48
SWIDTH 868 0
DWIDTH 17 0
BBX 16 14 1 0
BITMAP
0FE0
3FF8
7FFC
F81E
F01E
F00E
E00F
E00F
F00E
F01E
F81E
7FFC
3FF8
0FE0
ENDCHAR
STARTCHAR one
ENCODING 49
SWIDTH 611 0
DWIDTH 12 0
BBX 11 14 1 0
BITMAP
0E00
0E00
1E00
FE00
FE00
FE00
0E00
0E00
0E00
0E00
0E00
FFE0
FFE0
FFE0
ENDCHAR
STARTCHAR two
ENCODING 50
SWIDTH 796 0
DWIDTH 16 0
BBX 14 14 1 0
BITMAP
1FE0
7FF8
FFFC
F03C
F03C
003C
00F8
07F0
1FC0
7E00
F800
FFFC
FFFC
FFFC
ENDCHAR
STARTCHAR three
ENCODING 51
SWIDTH 796 0
DWIDTH 16 0
BBX 15 14 0 0
BITMAP
0FF0
3FFC
7FFE
781E
001E
03FC
03F8
03FC
001E
F01E
781E
7FFE
3FFC
0FF0
ENDCHAR
STARTCHAR four
ENCODING 52
SWIDTH 796 0
DWIDTH 16 0
BBX 15 14 0 0
BITMAP
00F8
01F8
03F8
0738
0E38
1C38
3C38
7838
FFFE
FFFE
FFFE
0038
0038
0038
ENDCHAR
STARTCHAR five
ENCODING 53
SWIDTH 791 0
DWIDTH 16 0
BBX 14 14 1 0
BITMAP
FFF8
FFF8
FFF8
E000
EFE0
FFF8
FFFC
003C
003C
003C
F03C
FFFC
7FF8
1FE0
ENDCHAR
STARTCHAR six
ENCODING 54
SWIDTH 817 0
DWIDTH 16 0
BBX 15 14 1 0
BITMAP
0FE0
3FF8
7FFC
F01C
F180
EFF8
FFFC
F83C
F01E
F01E
F03C
7FFC
3FF8
0FE0
ENDCHAR
STARTCHAR seven
ENCODING 55
SWIDTH 753 0
DWIDTH 15 0
BBX 15 14 0 0
BITMAP
FFFE
FFFE
FFFE
003C
0078
0078
00F0
00F0
01E0
03C0
03C0
0780
0F80
0F00
ENDCHAR
STARTCHAR eight
ENCODING 56
SWIDTH 826 0
DWIDTH 17 0
BBX 15 14 1 0
BITMAP
1FF0
7FFC
FFFC
F01E
F01C
7FFC
3FF0
7FFC
F03E
F01E
F01E
FFFC
7FFC
1FF0
ENDCHAR
STARTCHAR nine
ENCODING 57
SWIDTH 806 0
DWIDTH 16 0
BBX 15 14 0 0
BITMAP
0FE0
3FF8
7FFC
781E
F01E
781E
7FFE
3FFE
1FCE
001E
781E
7FFC
3FF8
0FE0
ENDCHAR
STARTCHAR colon
ENCODING 58
SWIDTH 323 0
DWIDTH 6 0
BBX 4 11 1 0
BITMAP
F0
F0
F0
00
00
00
00
00
F0
F0
F0
ENDCHAR
STARTCHAR semicolon
ENCODING 59
SWIDTH 323 0
DWIDTH 6 0
BBX 4 14 1 -3
BITMAP
F0
F0
F0
00
00
00
00
00
F0
F0
F0
30
F0
E0
ENDCHAR
STARTCHAR less
ENCODING 60
SWIDTH 672 0
DWIDTH 13 0
BBX 11 11 1 1
BITMAP
0020
00E0
07E0
1F80
FE00
F000
FC00
1F80
07E0
01E0
0020
ENDCHAR
STARTCHAR equal
ENCODING 61
SWIDTH 674 0
DWIDTH 13 0
BBX 11 7 1 3
BITMAP
FFE0
FFE0
FFE0
0000
FFE0
FFE0
FFE0
ENDCHAR
STARTCHAR greater
ENCODING 62
SWIDTH 674 0
DWIDTH 13 0
BBX 11 11 1 1
BITMAP
8000
F000
FC00
3F80
07E0
01E0
07E0
1F80
FC00
F000
C000
ENDCHAR
STARTCHAR question
ENCODING 63
SWIDTH 711 0
DWIDTH 14 0
BBX 14 14 0 0
BITMAP
0FE0
3FF8
7FF8
783C
F03C
0078
01F0
03E0
0380
0380
0000
0780
0780
0780
ENDCHAR
STARTCHAR at
ENCODING 64
SWIDTH 1052 0
DWIDTH 21 0
BBX 19 18 1 -4
BITMAP
03F800
0FFF00
1E0780
3801C0
71ECE0
63FC60
E71C60
C61C60
CE1860
CE1860
CE38C0
C7FF80
E3DF00
600000
700380
3C0700
1FFE00
03F800
ENDCHAR
STARTCHAR A
ENCODING 65
SWIDTH 937 0
DWIDTH 19 0
BBX 19 14 0 0
BITMAP
01F000
03F000
03F800
07B800
071C00
0F1C00
0E1E00
1E0E00
1FFF00
3FFF00
3FFF80
780380
7803C0
F001E0
ENDCHAR
STARTCHAR B
ENCODING 66
SWIDTH 870 0
DWIDTH 17 0
BBX 16 14 1 0
BITMAP
FFF8
FFFE
FFFE
F01E
F01E
FFFE
FFF8
FFFE
F01E
F00F
F00F
FFFE
FFFE
FFFC
ENDCHAR
STARTCHAR C
ENCODING 67
SWIDTH 914 0
DWIDTH 18 0
BBX 17 14 1 0
BITMAP
07F000
1FFC00
7FFE00
781F00
F00F00
F00000
F00000
F00000
F00F80
F00F00
781F00
7FFE00
1FFC00
07F000
ENDCHAR
STARTCHAR D
ENCODING 68
SWIDTH 889 0
DWIDTH 18 0
BBX 16 14 1 0
BITMAP
FFF0
FFFC
FFFE
F01E
F00F
F00F
F00F
F00F
F00F
F00F
F01E
FFFE
FFFC
FFF0
ENDCHAR
STARTCHAR E
ENCODING 69
SWIDTH 795 0
DWIDTH 16 0
BBX 14 14 1 0
BITMAP
FFFC
FFFC
FFFC
F000
F000
FFF8
FFF8
FFF8
F000
F000
F000
FFFC
FFFC
FFFC
ENDCHAR
STARTCHAR F
ENCODING 70
SWIDTH 777 0
DWIDTH 16 0
BBX 14 14 1 0
BITMAP
FFFC
FFFC
FFFC
F000
F000
F000
FFF8
FFF8
FFF8
F000
F000
F000
F000
F000
ENDCHAR
STARTCHAR G
ENCODING 71
SWIDTH 949 0
DWIDTH 19 0
BBX 17 14 1 0
BITMAP
07F800
1FFE00
7FFF00
780F00
F00780
F00000
F07F80
F07F80
F07F80
F00780
780F80
7FFF80
1FFF80
07F380
ENDCHAR
STARTCHAR H
ENCODING 72
SWIDTH 901 0
DWIDTH 18 0
BBX 16 14 1 0
BITMAP
F00F
F00F
F00F
F00F
F00F
FFFF
FFFF
FFFF
F00F
F00F
F00F
F00F
F00F
F00F
ENDCHAR
STARTCHAR I
ENCODING 73
SWIDTH 594 0
DWIDTH 12 0
BBX 12 14 0 0
BITMAP
FFF0
FFF0
FFF0
0F00
0F00
0F00
0F00
0F00
0F00
0F00
0F00
FFF0
FFF0
FFF0
ENDCHAR
STARTCHAR J
ENCODING 74
SWIDTH 807 0
DWIDTH 16 0
BBX 14 14 1 0
BITMAP
003C
003C
003C
003C
003C
003C
003C
E03C
E03C
E03C
F038
FFF8
7FF0
1FC0
ENDCHAR
STARTCHAR K
ENCODING 75
SWIDTH 866 0
DWIDTH 17 0
BBX 16 14 1 0
BITMAP
F03F
F07C
F0F0
F1E0
F3C0
FF80
FF00
FF80
F7C0
F3E0
F1F0
F0F8
F03C
F01F
ENDCHAR
STARTCHAR L
ENCODING 76
SWIDTH 775 0
DWIDTH 16 0
BBX 14 14 1 0
BITMAP
F000
F000
F000
F000
F000
F000
F000
F000
F000
F000
F000
FFFC
FFFC
FFFC
ENDCHAR
STARTCHAR M
ENCODING 77
SWIDTH 1154 0
DWIDTH 23 0
BBX 21 14 1 0
BITMAP
FE03F8
FE03F8
FF07F8
F70778
F70778
F78F78
F38E78
F3DE78
F1DC78
F1FC78
F1FC78
F0F878
F0F878
F07078
ENDCHAR
STARTCHAR N
ENCODING 78
SWIDTH 923 0
DWIDTH 18 0
BBX 16 14 1 0
BITMAP
F807
FC07
FE07
FF07
F707
F787
F3C7
F1C7
F0E7
F0F7
F07F
F03F
F03F
F01F
ENDCHAR
STARTCHAR O
ENCODING 79
SWIDTH 951 0
DWIDTH 19 0
BBX 17 14 1 0
BITMAP
07F000
1FFC00
7FFF00
780F00
F00780
F00780
F00780
F00780
F00780
F00780
780F00
7FFF00
1FFC00
07F000
ENDCHAR
STARTCHAR P
ENCODING 80
SWIDTH 844 0
DWIDTH 17 0
BBX 15 14 1 0
BITMAP
FFF8
FFFE
FFFE
F01E
F00E
F01E
FFFE
FFFE
FFF8
F000
F000
F000
F000
F000
ENDCHAR
STARTCHAR Q
ENCODING 81
SWIDTH 951 0
DWIDTH 19 0
BBX 18 14 1 0
BITMAP
07F000
1FFE00
7FFF00
7C1F00
F00780
F00780
F00780
F00780
F0F780
F03F80
7C1F00
7FFF00
1FFF80
07FBC0
ENDCHAR
STARTCHAR R
ENCODING 82
SWIDTH 875 0
DWIDTH 18 0
BBX 16 14 1 0
BITMAP
FFFC
FFFE
FFFF
F00F
F00F
F00E
FFFE
FFF0
FFFE
F00E
F00E
F00E
F00E
F00E
ENDCHAR
STARTCHAR S
ENCODING 83
SWIDTH 836 0
DWIDTH 17 0
BBX 16 14 0 0
BITMAP
0FF0
3FFC
7FFE
781E
7801
7F00
3FFC
0FFE
001F
F00F
780F
7FFF
3FFE
0FF8
ENDCHAR
STARTCHAR T
ENCODING 84
SWIDTH 790 0
DWIDTH 16 0
BBX 15 14 0 0
BITMAP
FFFE
FFFE
FFFE
03C0
03C0
03C0
03C0
03C0
03C0
03C0
03C0
03C0
03C0
03C0
ENDCHAR
STARTCHAR U
ENCODING 85
SWIDTH 897 0
DWIDTH 18 0
BBX 16 14 1 0
BITMAP
F00F
F00F
F00F
F00F
F00F
F00F
F00F
F00F
F00F
F00E
781E
7FFE
3FFC
0FF0
ENDCHAR
STARTCHAR V
ENCODING 86
SWIDTH 880 0
DWIDTH 18 0
BBX 18 14 0 0
BITMAP
F007C0
780780
780F00
3C0F00
3C0E00
1E1E00
1E1C00
0E3C00
0F3800
077800
07F800
03F000
03F000
01E000
ENDCHAR
STARTCHAR W
ENCODING 87
SWIDTH 1234 0
DWIDTH 25 0
BBX 25 14 0 0
BITMAP
F03E0780
703E0F00
783E0F00
787E0E00
387F0E00
38771E00
3CE71C00
1CE79C00
1CE3BC00
1EE3B800
0FC3F800
0FC1F800
0FC1F000
0F81F000
ENDCHAR
STARTCHAR X
ENCODING 88
SWIDTH 894 0
DWIDTH 18 0
BBX 18 14 0 0
BITMAP
780F80
3C0F00
1E1E00
1E3C00
0F3C00
07F800
03F000
03F000
07F800
0F3C00
1E1E00
3C1F00
7C0F80
F807C0
ENDCHAR
STARTCHAR Y
ENCODING 89
SWIDTH 865 0
DWIDTH 17 0
BBX 17 14 0 0
BITMAP
F80780
780F00
3C1E00
1E1E00
1E3C00
0F7800
07F000
03F000
03E000
01C000
01C000
01C000
01C000
01C000
ENDCHAR
STARTCHAR Z
ENCODING 90
SWIDTH 839 0
DWIDTH 17 0
BBX 15 14 1 0
BITMAP
FFFE
FFFE
FFFE
007C
01F8
03E0
07C0
0F80
1F00
3E00
7C00
FFFE
FFFE
FFFE
ENDCHAR
STARTCHAR bracketleft
ENCODING 91
SWIDTH 409 0
DWIDTH 8 0
BBX 7 18 1 -4
BITMAP
FE
FE
FE
F0
F0
F0
F0
F0
F0
F0
F0
F0
F0
F0
F0
FE
FE
FE
ENDCHAR
STARTCHAR backslash
ENCODING 92
SWIDTH 480 0
DWIDTH 10 0
BBX 9 14 0 0
BITMAP
F000
7000
3000
3800
3800
1C00
1C00
0C00
0E00
0E00
0700
0700
0380
0380
ENDCHAR
STARTCHAR bracketright
ENCODING 93
SWIDTH 411 0
DWIDTH 8 0
BBX 6 18 1 -4
BITMAP
FC
FC
FC
3C
3C
3C
3C
3C
3C
3C
3C
3C
3C
3C
3C
FC
FC
FC
ENDCHAR
STARTCHAR asciicircum
ENCODING 94
SWIDTH 560 0
DWIDTH 11 0
BBX 10 7 1 7
BITMAP
1C00
1E00
3600
3700
6300
E380
C1C0
ENDCHAR
STARTCHAR underscore
ENCODING 95
SWIDTH 746 0
DWIDTH 15 0
BBX 15 1 0 -3
BITMAP
FFFE
ENDCHAR
STARTCHAR grave
ENCODING 96
SWIDTH 457 0
DWIDTH 9 0
BBX 7 3 1 12
BITMAP
F8
3C
1E
ENDCHAR
STARTCHAR a
ENCODING 97
SWIDTH 719 0
DWIDTH 14 0
BBX 13 11 1 0
BITMAP
1FC0
7FF0
7FF0
F070
07F0
7FF0
F070
E0F0
FFF0
FF70
7E78
ENDCHAR
STARTCHAR b
ENCODING 98
SWIDTH 766 0
DWIDTH 15 0
BBX 14 14 1 0
BITMAP
F000
F000
F000
F7E0
FFF0
FFF8
F078
F03C
E03C
F03C
F078
FFF8
FFF0
F7E0
ENDCHAR
STARTCHAR c
ENCODING 99
SWIDTH 747 0
DWIDTH 15 0
BBX 13 11 1 0
BITMAP
1FC0
7FF0
FFF8
F078
E000
E000
E000
F078
FFF8
7FF0
1FC0
ENDCHAR
STARTCHAR d
ENCODING 100
SWIDTH 767 0
DWIDTH 15 0
BBX 13 14 1 0
BITMAP
0038
0038
0038
1F38
7FF8
FFF8
F078
E038
E038
E038
F078
FFF8
7FF8
1F38
ENDCHAR
STARTCHAR e
ENCODING 101
SWIDTH 748 0
DWIDTH 15 0
BBX 13 11 1 0
BITMAP
1FC0
7FF0
F8F0
F078
FFF8
FFF8
FFF8
F000
F8F8
7FF0
1FC0
ENDCHAR
STARTCHAR f
ENCODING 102
SWIDTH 455 0
DWIDTH 9 0
BBX 9 14 0 0
BITMAP
1F80
3F80
3F80
FF80
FF80
FF80
3C00
3C00
3C00
3C00
3C00
3C00
3C00
3C00
ENDCHAR
STARTCHAR g
ENCODING 103
SWIDTH 757 0
DWIDTH 15 0
BBX 13 15 1 -4
BITMAP
1F38
7FB8
FFF8
F078
E038
E038
E078
F0F8
7FF8
3FB8
0C38
F078
F8F8
7FF0
3FC0
ENDCHAR
STARTCHAR h
ENCODING 104
SWIDTH 748 0
DWIDTH 15 0
BBX 13 14 1 0
BITMAP
F000
F000
F000
F7E0
FFF0
FFF8
F078
F078
F078
F078
F078
F078
F078
F078
ENDCHAR
STARTCHAR i
ENCODING 105
SWIDTH 287 0
DWIDTH 6 0
BBX 4 15 1 0
BITMAP
F0
F0
F0
00
F0
F0
F0
F0
F0
F0
F0
F0
F0
F0
F0
ENDCHAR
STARTCHAR j
ENCODING 106
SWIDTH 287 0
DWIDTH 6 0
BBX 6 19 -1 -4
BITMAP
3C
3C
3C
00
3C
3C
3C
3C
3C
3C
3C
3C
3C
3C
3C
3C
FC
F8
F8
ENDCHAR
STARTCHAR k
ENCODING 107
SWIDTH 689 0
DWIDTH 14 0
BBX 13 14 1 0
BITMAP
F000
F000
F000
F0F0
F1E0
F3C0
F780
FE00
FE00
FF00
F780
F3C0
F1E0
F0F8
ENDCHAR
STARTCHAR l
ENCODING 108
SWIDTH 287 0
DWIDTH 6 0
BBX 4 14 1 0
BITMAP
F0
F0
F0
F0
F0
F0
F0
F0
F0
F0
F0
F0
F0
F0
ENDCHAR
STARTCHAR m
ENCODING 109
SWIDTH 1148 0
DWIDTH 23 0
BBX 21 11 1 0
BITMAP
F7E7E0
FFFFF0
FFFFF8
F07878
F07078
F07078
F07078
F07078
F07078
F07078
F07078
ENDCHAR
STARTCHAR n
ENCODING 110
SWIDTH 748 0
DWIDTH 15 0
BBX 13 11 1 0
BITMAP
F7E0
FFF0
FFF8
F078
F078
F078
F078
F078
F078
F078
F078
ENDCHAR
STARTCHAR o
ENCODING 111
SWIDTH 755 0
DWIDTH 15 0
BBX 13 11 1 0
BITMAP
1FC0
7FF0
FFF8
F078
E038
E038
E038
F078
FFF8
7FF0
1FC0
ENDCHAR
STARTCHAR p
ENCODING 112
SWIDTH 766 0
DWIDTH 15 0
BBX 14 15 1 -4
BITMAP
F7E0
FFF0
FFF8
F078
F03C
E03C
F03C
F078
FFF8
FFF0
F7E0
F000
F000
F000
F000
ENDCHAR
STARTCHAR q
ENCODING 113
SWIDTH 767 0
DWIDTH 15 0
BBX 13 15 1 -4
BITMAP
1F38
7FF8
FFF8
F078
E038
E038
E038
F078
FFF8
7FF8
1F38
0038
0038
0038
0038
ENDCHAR
STARTCHAR r
ENCODING 114
SWIDTH 534 0
DWIDTH 11 0
BBX 9 11 1 0
BITMAP
F780
FF80
FF80
F800
F000
F000
F000
F000
F000
F000
F000
ENDCHAR
STARTCHAR s
ENCODING 115
SWIDTH 706 0
DWIDTH 14 0
BBX 13 11 0 0
BITMAP
1FC0
7FF0
7878
7078
7FC0
3FF8
01F8
F038
7878
7FF8
1FE0
ENDCHAR
STARTCHAR t
ENCODING 116
SWIDTH 457 0
DWIDTH 9 0
BBX 8 14 0 0
BITMAP
3C
3C
3C
FF
FF
FF
3C
3C
3C
3C
3C
3F
3F
1F
ENDCHAR
STARTCHAR u
ENCODING 117
SWIDTH 748 0
DWIDTH 15 0
BBX 13 11 1 0
BITMAP
F078
F078
F078
F078
F078
F078
F078
F078
FFF8
7FF8
3F78
ENDCHAR
STARTCHAR v
ENCODING 118
SWIDTH 722 0
DWIDTH 14 0
BBX 14 11 0 0
BITMAP
F03C
783C
7838
3878
3C70
1CF0
1CE0
0EE0
0FC0
0FC0
07C0
ENDCHAR
STARTCHAR w
ENCODING 119
SWIDTH 1126 0
DWIDTH 23 0
BBX 22 11 0 0
BITMAP
F0783C
707C3C
78FC38
38FE78
38EE78
3DEE70
1DCFF0
1FC7F0
1F87E0
0F83E0
0F83C0
ENDCHAR
STARTCHAR x
ENCODING 120
SWIDTH 759 0
DWIDTH 15 0
BBX 15 11 0 0
BITMAP
783C
3C78
1C78
1EF0
0FE0
07C0
07E0
0FF0
1EF8
3C7C
F83E
ENDCHAR
STARTCHAR y
ENCODING 121
SWIDTH 722 0
DWIDTH 14 0
BBX 14 15 0 -4
BITMAP
F03C
783C
7878
3878
3C70
1CF0
1EE0
0FE0
0FC0
07C0
0780
0780
7F00
7F00
7C00
ENDCHAR
STARTCHAR z
ENCODING 122
SWIDTH 679 0
DWIDTH 14 0
BBX 12 11 1 0
BITMAP
FFF0
FFF0
FFF0
03E0
0FC0
1F00
3E00
7C00
FFF0
FFF0
FFF0
ENDCHAR
STARTCHAR braceleft
ENCODING 123
SWIDTH 428 0
DWIDTH 9 0
BBX 7 18 1 -4
BITMAP
3E
3E
7E
78
78
78
78
78
F0
E0
F8
78
78
78
78
7E
3E
3E
ENDCHAR
STARTCHAR bar
ENCODING 124
SWIDTH 296 0
DWIDTH 6 0
BBX 4 20 1 -4
BITMAP
F0
F0
F0
F0
F0
F0
F0
F0
F0
F0
F0
F0
F0
F0
F0
F0
F0
F0
F0
F0
ENDCHAR
STARTCHAR braceright
ENCODING 125
SWIDTH 426 0
DWIDTH 9 0
BBX 7 18 1 -4
BITMAP
F0
F8
F8
38
38
38
38
38
3E
1E
3E
38
38
38
38
F8
F8
F0
ENDCHAR
STARTCHAR asciitilde
ENCODING 126
SWIDTH 674 0
DWIDTH 13 0
BBX 11 4 1 4
BITMAP
7820
FFE0
FFE0
83C0
ENDCHAR
STARTCHAR uni00A0
ENCODING 160
SWIDTH 338 0
DWIDTH 7 0
BBX 1 1 0 0
BITMAP
00
ENDCHAR
STARTCHAR exclamdown
ENCODING 161
SWIDTH 324 0
DWIDTH 6 0
BBX 4 15 1 -4
BITMAP
F0
F0
F0
00
00
00
70
70
70
70
F0
F0
F0
F0
F0
ENDCHAR
STARTCHAR cent
ENCODING 162
SWIDTH 747 0
DWIDTH 15 0
BBX 13 15 1 -2
BITMAP
0200
0200
1FC0
7FF0
FAF8
F278
E200
E200
E200
F278
FAF8
7FF0
1FC0
0200
0200
ENDCHAR
STARTCHAR sterling
ENCODING 163
SWIDTH 773 0
DWIDTH 15 0
BBX 14 14 1 0
BITMAP
1FC0
3FF0
7FF8
7878
7038
7800
3800
FFC0
0E00
7E00
FE04
CFFC
FFFC
78F8
ENDCHAR
STARTCHAR currency
ENCODING 164
SWIDTH 671 0
DWIDTH 13 0
BBX 11 11 1 2
BITMAP
4440
FFE0
7FE0
71C0
E0E0
E060
E060
60E0
7FC0
FFE0
4F60
ENDCHAR
STARTCHAR yen
ENCODING 165
SWIDTH 827 0
DWIDTH 17 0
BBX 17 14 0 0
BITMAP
F00F80
781F00
3C1E00
3C3C00
1E7800
0F7800
3FFC00
07E000
03E000
3FFC00
01C000
01C000
01C000
01C000
ENDCHAR
STARTCHAR brokenbar
ENCODING 166
SWIDTH 296 0
DWIDTH 6 0
BBX 4 20 1 -4
BITMAP
F0
F0
F0
F0
F0
F0
F0
F0
F0
00
00
F0
F0
F0
F0
F0
F0
F0
F0
F0
ENDCHAR
STARTCHAR section
ENCODING 167
SWIDTH 869 0
DWIDTH 17 0
BBX 17 18 0 -4
BITMAP
07F000
1FFC00
1FFC00
3C1E00
3C0000
1F8000
7FFC00
71FF00
F01F80
7E0380
3FF380
07FF00
007E00
380E00
3C0E00
3FFE00
1FFC00
07F800
ENDCHAR
STARTCHAR dieresis
ENCODING 168
SWIDTH 567 0
DWIDTH 11 0
BBX 9 3 1 12
BITMAP
F380
F380
F380
ENDCHAR
STARTCHAR copyright
ENCODING 169
SWIDTH 850 0
DWIDTH 17 0
BBX 15 15 1 0
BITMAP
07C0
1830
2008
4384
CFE6
8C62
9802
9802
9812
8C62
CFE6
47C4
2008
1830
07C0
ENDCHAR
STARTCHAR ordfeminine
ENCODING 170
SWIDTH 486 0
DWIDTH 10 0
BBX 9 14 0 0
BITMAP
3F00
7B80
0380
7F80
6380
7F80
3980
0000
0000
0000
0000
0000
FF80
FF80
ENDCHAR
STARTCHAR guillemotleft
ENCODING 171
SWIDTH 516 0
DWIDTH 10 0
BBX 8 9 1 1
BITMAP
11
73
F7
E7
84
E6
F7
73
11
ENDCHAR
STARTCHAR logicalnot
ENCODING 172
SWIDTH 674 0
DWIDTH 13 0
BBX 11 6 1 3
BITMAP
FFE0
FFE0
FFE0
00E0
00E0
00E0
ENDCHAR
STARTCHAR registered
ENCODING 174
SWIDTH 850 0
DWIDTH 17 0
BBX 15 15 1 0
BITMAP
07C0
1830
2008
4004
CFC6
8C62
8C62
8C62
8FC2
8CC2
CCC6
4C64
2008
1830
07C0
ENDCHAR
STARTCHAR macron
ENCODING 175
SWIDTH 562 0
DWIDTH 11 0
BBX 9 3 1 12
BITMAP
FF80
FF80
FF80
ENDCHAR
STARTCHAR degree
ENCODING 176
SWIDTH 357 0
DWIDTH 7 0
BBX 7 6 0 8
BITMAP
38
64
46
C6
44
3C
ENDCHAR
STARTCHAR plusminus
ENCODING 177
SWIDTH 674 0
DWIDTH 13 0
BBX 11 12 1 0
BITMAP
0E00
0E00
0E00
FFE0
FFE0
FFE0
0E00
0E00
0E00
FFE0
FFE0
FFE0
ENDCHAR
STARTCHAR uni00B2
ENCODING 178
SWIDTH 499 0
DWIDTH 10 0
BBX 9 8 0 6
BITMAP
3F00
7F80
E180
0380
1F00
7000
7F80
FF80
ENDCHAR
STARTCHAR uni00B3
ENCODING 179
SWIDTH 490 0
DWIDTH 10 0
BBX 9 8 0 6
BITMAP
3F00
7F80
E180
0F80
0F80
E180
FF80
3F00
ENDCHAR
STARTCHAR acute
ENCODING 180
SWIDTH 457 0
DWIDTH 9 0
BBX 7 3 1 12
BITMAP
3E
78
F0
ENDCHAR
STARTCHAR paragraph
ENCODING 182
SWIDTH 715 0
DWIDTH 14 0
BBX 12 18 1 -4
BITMAP
3FF0
7FF0
FFF0
FF30
FF30
FF30
FF30
7F30
3F30
0730
0730
0730
0730
0730
0730
0730
0730
0730
ENDCHAR
STARTCHAR periodcentered
ENCODING 183
SWIDTH 289 0
DWIDTH 6 0
BBX 4 4 1 4
BITMAP
E0
F0
F0
E0
ENDCHAR
STARTCHAR cedilla
ENCODING 184
SWIDTH 453 0
DWIDTH 9 0
BBX 7 5 1 -4
BITMAP
38
38
7E
8E
FC
ENDCHAR
STARTCHAR uni00B9
ENCODING 185
SWIDTH 332 0
DWIDTH 7 0
BBX 7 8 0 6
BITMAP
18
78
78
18
18
18
FE
FE
ENDCHAR
STARTCHAR ordmasculine
ENCODING 186
SWIDTH 486 0
DWIDTH 10 0
BBX 9 14 0 0
BITMAP
3E00
7F80
6380
E180
6380
7F80
3E00
0000
0000
0000
0000
0000
FF80
FF80
ENDCHAR
STARTCHAR guillemotright
ENCODING 187
SWIDTH 513 0
DWIDTH 10 0
BBX 8 9 1 1
BITMAP
84
C6
E7
73
31
73
F7
C6
84
ENDCHAR
STARTCHAR questiondown
ENCODING 191
SWIDTH 710 0
DWIDTH 14 0
BBX 14 15 0 -4
BITMAP
0780
0780
0780
0000
0780
0780
0F00
3F00
7E00
7800
F03C
7038
7FF8
3FF0
1FC0
ENDCHAR
STARTCHAR Agrave
ENCODING 192
SWIDTH 937 0
DWIDTH 19 0
BBX 19 18 0 0
BITMAP
0F8000
03C000
01E000
000000
01F000
03F000
03F800
07B800
071C00
0F1C00
0E1E00
1E0E00
1FFF00
3FFF00
3FFF80
780380
7803C0
F001E0
ENDCHAR
STARTCHAR Aacute
ENCODING 193
SWIDTH 937 0
DWIDTH 19 0
BBX 19 18 0 0
BITMAP
007C00
007800
00E000
000000
01F000
03F000
03F800
07B800
071C00
0F1C00
0E1E00
1E0E00
1FFF00
3FFF00
3FFF80
780380
7803C0
F001E0
ENDCHAR
STARTCHAR Acircumflex
ENCODING 194
SWIDTH 937 0
DWIDTH 19 0
BBX 19 18 0 0
BITMAP
01F000
03F800
0F3C00
000000
01F000
03F000
03F800
07B800
071C00
0F1C00
0E1E00
1E0E00
1FFF00
3FFF00
3FFF80
780380
7803C0
F001E0
ENDCHAR
STARTCHAR Atilde
ENCODING 195
SWIDTH 937 0
DWIDTH 19 0
BBX 19 18 0 0
BITMAP
079C00
07FC00
0FF800
000000
01F000
03F000
03F800
07B800
071C00
0F1C00
0E1E00
1E0E00
1FFF00
3FFF00
3FFF80
780380
7803C0
F001E0
ENDCHAR
STARTCHAR Adieresis
ENCODING 196
SWIDTH 937 0
DWIDTH 19 0
BBX 19 18 0 0
BITMAP
073800
073800
073800
000000
01F000
03F000
03F800
07B800
071C00
0F1C00
0E1E00
1E0E00
1FFF00
3FFF00
3FFF80
780380
7803C0
F001E0
ENDCHAR
STARTCHAR Aring
ENCODING 197
SWIDTH 937 0
DWIDTH 19 0
BBX 19 20 0 0
BITMAP
01E000
03F000
033000
03F000
01E000
000000
01F000
03F000
03F800
07B800
071C00
0F1C00
0E1E00
1E0E00
1FFF00
3FFF00
3FFF80
780380
7803C0
F001E0
ENDCHAR
STARTCHAR AE
ENCODING 198
SWIDTH 1365 0
DWIDTH 27 0
BBX 26 14 0 0
BITMAP
003FFFC0
007FFFC0
00FFFFC0
01E78000
01E78000
03C7FFC0
0787FFC0
0707FFC0
0FFF8000
1FFF8000
3FFF8000
3C07FFC0
7807FFC0
F007FFC0
ENDCHAR
STARTCHAR Ccedilla
ENCODING 199
SWIDTH 914 0
DWIDTH 18 0
BBX 17 18 1 -4
BITMAP
07F000
1FFC00
7FFE00
781F00
F00F00
F00000
F00000
F00000
F00F80
F00F00
781F00
7FFE00
3FFC00
0FF800
018000
01F000
007000
03F000
ENDCHAR
STARTCHAR Egrave
ENCODING 200
SWIDTH 795 0
DWIDTH 16 0
BBX 14 18 1 0
BITMAP
3E00
0F00
0780
0000
FFFC
FFFC
FFFC
F000
F000
FFF8
FFF8
FFF8
F000
F000
F000
FFFC
FFFC
FFFC
ENDCHAR
STARTCHAR Eacute
ENCODING 201
SWIDTH 795 0
DWIDTH 16 0
BBX 14 18 1 0
BITMAP
01F0
01E0
0380
0000
FFFC
FFFC
FFFC
F000
F000
FFF8
FFF8
FFF8
F000
F000
F000
FFFC
FFFC
FFFC
ENDCHAR
STARTCHAR Ecircumflex
ENCODING 202
SWIDTH 795 0
DWIDTH 16 0
BBX 14 18 1 0
BITMAP
0780
0FE0
3CF0
0000
FFFC
FFFC
FFFC
F000
F000
FFF8
FFF8
FFF8
F000
F000
F000
FFFC
FFFC
FFFC
ENDCHAR
STARTCHAR Edieresis
ENCODING 203
SWIDTH 795 0
DWIDTH 16 0
BBX 14 18 1 0
BITMAP
1CE0
1CE0
1CE0
0000
FFFC
FFFC
FFFC
F000
F000
FFF8
FFF8
FFF8
F000
F000
F000
FFFC
FFFC
FFFC
ENDCHAR
STARTCHAR Igrave
ENCODING 204
SWIDTH 594 0
DWIDTH 12 0
BBX 12 18 0 0
BITMAP
7C00
3C00
0E00
0000
FFF0
FFF0
FFF0
0F00
0F00
0F00
0F00
0F00
0F00
0F00
0F00
FFF0
FFF0
FFF0
ENDCHAR
STARTCHAR Iacute
ENCODING 205
SWIDTH 594 0
DWIDTH 12 0
BBX 12 18 0 0
BITMAP
03E0
07C0
0700
0800
FFF0
FFF0
FFF0
0F00
0F00
0F00
0F00
0F00
0F00
0F00
0F00
FFF0
FFF0
FFF0
ENDCHAR
STARTCHAR Icircumflex
ENCODING 206
SWIDTH 594 0
DWIDTH 12 0
BBX 12 18 0 0
BITMAP
0F00
1F80
79E0
0000
FFF0
FFF0
FFF0
0F00
0F00
0F00
0F00
0F00
0F00
0F00
0F00
FFF0
FFF0
FFF0
ENDCHAR
STARTCHAR Idieresis
ENCODING 207
SWIDTH 594 0
DWIDTH 12 0
BBX 12 18 0 0
BITMAP
39C0
39C0
39C0
0000
FFF0
FFF0
FFF0
0F00
0F00
0F00
0F00
0F00
0F00
0F00
0F00
FFF0
FFF0
FFF0
ENDCHAR
STARTCHAR Eth
ENCODING 208
SWIDTH 903 0
DWIDTH 18 0
BBX 17 14 0 0
BITMAP
3FF800
3FFE00
3FFF00
380F80
380780
FF8780
FF8780
FF8780
380780
380780
380F80
3FFF00
3FFE00
3FF800
ENDCHAR
STARTCHAR Ntilde
ENCODING 209
SWIDTH 923 0
DWIDTH 18 0
BBX 16 18 1 0
BITMAP
0F38
0FF0
1FF0
0000
F807
FC07
FE07
FF07
F707
F787
F3C7
F1C7
F0E7
F0F7
F07F
F03F
F03F
F01F
ENDCHAR
STARTCHAR Ograve
ENCODING 210
SWIDTH 951 0
DWIDTH 19 0
BBX 17 18 1 0
BITMAP
0F0000
078000
03C000
000000
07F000
1FFC00
7FFF00
780F00
F00780
F00780
F00780
F00780
F00780
F00780
780F00
7FFF00
1FFC00
07F000
ENDCHAR
STARTCHAR Oacute
ENCODING 211
SWIDTH 951 0
DWIDTH 19 0
BBX 17 18 1 0
BITMAP
007C00
00F000
01E000
000000
07F000
1FFC00
7FFF00
780F00
F00780
F00780
F00780
F00780
F00780
F00780
780F00
7FFF00
1FFC00
07F000
ENDCHAR
STARTCHAR Ocircumflex
ENCODING 212
SWIDTH 951 0
DWIDTH 19 0
BBX 17 18 1 0
BITMAP
03E000
077000
0F3C00
000000
07F000
1FFC00
7FFF00
780F00
F00780
F00780
F00780
F00780
F00780
F00780
780F00
7FFF00
1FFC00
07F000
ENDCHAR
STARTCHAR Otilde
ENCODING 213
SWIDTH 951 0
DWIDTH 19 0
BBX 17 18 1 0
BITMAP
079800
0FF800
0FF000
000000
07F000
1FFC00
7FFF00
780F00
F00780
F00780
F00780
F00780
F00780
F00780
780F00
7FFF00
1FFC00
07F000
ENDCHAR
STARTCHAR Odieresis
ENCODING 214
SWIDTH 951 0
DWIDTH 19 0
BBX 17 18 1 0
BITMAP
0E3800
0E3800
0E3800
000000
07F000
1FFC00
7FFF00
780F00
F00780
F00780
F00780
F00780
F00780
F00780
780F00
7FFF00
1FFC00
07F000
ENDCHAR
STARTCHAR multiply
ENCODING 215
SWIDTH 645 0
DWIDTH 13 0
BBX 10 10 1 2
BITMAP
2080
60C0
F1C0
3B80
1F00
0E00
1F00
3B80
F1C0
60C0
ENDCHAR
STARTCHAR Oslash
ENCODING 216
SWIDTH 951 0
DWIDTH 19 0
BBX 17 14 1 0
BITMAP
07F180
1FFF00
7FFF00
781F00
F03F80
F06780
F0C780
F18780
F30780
FE0780
7C0F00
7FFF00
7FFC00
C7F000
ENDCHAR
STARTCHAR Ugrave
ENCODING 217
SWIDTH 897 0
DWIDTH 18 0
BBX 16 18 1 0
BITMAP
1F00
0F80
0380
0040
F00F
F00F
F00F
F00F
F00F
F00F
F00F
F00F
F00F
F00E
781E
7FFE
3FFC
0FF0
ENDCHAR
STARTCHAR Uacute
ENCODING 218
SWIDTH 897 0
DWIDTH 18 0
BBX 16 18 1 0
BITMAP
00F8
00F0
01C0
0000
F00F
F00F
F00F
F00F
F00F
F00F
F00F
F00F
F00F
F00E
781E
7FFE
3FFC
0FF0
ENDCHAR
STARTCHAR Ucircumflex
ENCODING 219
SWIDTH 897 0
DWIDTH 18 0
BBX 16 18 1 0
BITMAP
03C0
07E0
1E78
0000
F00F
F00F
F00F
F00F
F00F
F00F
F00F
F00F
F00F
F00E
781E
7FFE
3FFC
0FF0
ENDCHAR
STARTCHAR Udieresis
ENCODING 220
SWIDTH 897 0
DWIDTH 18 0
BBX 16 18 1 0
BITMAP
0E70
0E70
0E70
0000
F00F
F00F
F00F
F00F
F00F
F00F
F00F
F00F
F00F
F00E
781E
7FFE
3FFC
0FF0
ENDCHAR
STARTCHAR Yacute
ENCODING 221
SWIDTH 865 0
DWIDTH 17 0
BBX 17 18 0 0
BITMAP
007C00
00F000
01E000
000000
F80780
780F00
3C1E00
1E1E00
1E3C00
0F7800
07F000
03F000
03E000
01C000
01C000
01C000
01C000
01C000
ENDCHAR
STARTCHAR Thorn
ENCODING 222
SWIDTH 856 0
DWIDTH 17 0
BBX 15 14 1 0
BITMAP
F000
F000
FFF8
FFFE
FFFE
F01E
F00E
F01E
FFFE
FFFE
FFF8
F000
F000
F000
ENDCHAR
STARTCHAR germandbls
ENCODING 223
SWIDTH 780 0
DWIDTH 16 0
BBX 14 14 1 0
BITMAP
1FC0
7FF0
7FF8
F078
F078
F7F0
F7F0
F7F8
F03C
F03C
F03C
F7FC
F7F8
F7E0
ENDCHAR
STARTCHAR agrave
ENCODING 224
SWIDTH 719 0
DWIDTH 14 0
BBX 13 15 1 0
BITMAP
7C00
1E00
0F00
0000
1FC0
7FF0
7FF0
F070
07F0
7FF0
F070
E0F0
FFF0
FF70
7E78
ENDCHAR
STARTCHAR aacute
ENCODING 225
SWIDTH 719 0
DWIDTH 14 0
BBX 13 15 1 0
BITMAP
03E0
03C0
0700
0000
1FC0
7FF0
7FF0
F070
07F0
7FF0
F070
E0F0
FFF0
FF70
7E78
ENDCHAR
STARTCHAR acircumflex
ENCODING 226
SWIDTH 719 0
DWIDTH 14 0
BBX 13 15 1 0
BITMAP
0F80
1FC0
79E0
0000
1FC0
7FF0
7FF0
F070
07F0
7FF0
F070
E0F0
FFF0
FF70
7E78
ENDCHAR
STARTCHAR atilde
ENCODING 227
SWIDTH 719 0
DWIDTH 14 0
BBX 13 15 1 0
BITMAP
1C60
3FE0
3FC0
0000
1FC0
7FF0
7FF0
F070
07F0
7FF0
F070
E0F0
FFF0
FF70
7E78
ENDCHAR
STARTCHAR adieresis
ENCODING 228
SWIDTH 719 0
DWIDTH 14 0
BBX 13 15 1 0
BITMAP
39E0
39E0
39E0
0000
1FC0
7FF0
7FF0
F070
07F0
7FF0
F070
E0F0
FFF0
FF70
7E78
ENDCHAR
STARTCHAR aring
ENCODING 229
SWIDTH 719 0
DWIDTH 14 0
BBX 13 17 1 0
BITMAP
0F00
1F80
19C0
1F80
0F00
0000
1FC0
7FF0
7FF0
F070
07F0
7FF0
F070
E0F0
FFF0
FF70
7E78
ENDCHAR
STARTCHAR ae
ENCODING 230
SWIDTH 1177 0
DWIDTH 24 0
BBX 22 11 1 0
BITMAP
1FCFC0
7FFFF0
F8FC78
00783C
1FFFFC
FFFFFC
F07FFC
E0F004
F1FC78
FFDFF8
3F0FE0
ENDCHAR
STARTCHAR ccedilla
ENCODING 231
SWIDTH 747 0
DWIDTH 15 0
BBX 13 15 1 -4
BITMAP
1FC0
7FF0
FFF8
F078
E000
E000
E000
F078
FFF8
7FF0
1FC0
0600
07C0
00C0
0FC0
ENDCHAR
STARTCHAR egrave
ENCODING 232
SWIDTH 748 0
DWIDTH 15 0
BBX 13 15 1 0
BITMAP
3C00
1E00
0F00
0000
1FC0
7FF0
F8F0
F078
FFF8
FFF8
FFF8
F000
F8F8
7FF0
1FC0
ENDCHAR
STARTCHAR eacute
ENCODING 233
SWIDTH 748 0
DWIDTH 15 0
BBX 13 15 1 0
BITMAP
01E0
03C0
0780
0000
1FC0
7FF0
F8F0
F078
FFF8
FFF8
FFF8
F000
F8F8
7FF0
1FC0
ENDCHAR
STARTCHAR ecircumflex
ENCODING 234
SWIDTH 748 0
DWIDTH 15 0
BBX 13 15 1 0
BITMAP
0F80
1DC0
7DF0
0000
1FC0
7FF0
F8F0
F078
FFF8
FFF8
FFF8
F000
F8F8
7FF0
1FC0
ENDCHAR
STARTCHAR edieresis
ENCODING 235
SWIDTH 748 0
DWIDTH 15 0
BBX 13 15 1 0
BITMAP
38E0
38E0
38E0
0000
1FC0
7FF0
F8F0
F078
FFF8
FFF8
FFF8
F000
F8F8
7FF0
1FC0
ENDCHAR
STARTCHAR igrave
ENCODING 236
SWIDTH 287 0
DWIDTH 6 0
BBX 7 15 -2 0
BITMAP
F8
78
1C
00
1E
1E
1E
1E
1E
1E
1E
1E
1E
1E
1E
ENDCHAR
STARTCHAR iacute
ENCODING 237
SWIDTH 287 0
DWIDTH 6 0
BBX 7 15 1 0
BITMAP
3E
78
F0
00
F0
F0
F0
F0
F0
F0
F0
F0
F0
F0
F0
ENDCHAR
STARTCHAR icircumflex
ENCODING 238
SWIDTH 287 0
DWIDTH 6 0
BBX 10 15 -2 0
BITMAP
1E00
7F00
F3C0
0000
1E00
1E00
1E00
1E00
1E00
1E00
1E00
1E00
1E00
1E00
1E00
ENDCHAR
STARTCHAR idieresis
ENCODING 239
SWIDTH 287 0
DWIDTH 6 0
BBX 8 15 -1 0
BITMAP
E7
E7
E7
00
3C
3C
3C
3C
3C
3C
3C
3C
3C
3C
3C
ENDCHAR
STARTCHAR eth
ENCODING 240
SWIDTH 746 0
DWIDTH 15 0
BBX 13 15 1 0
BITMAP
39C0
7F80
1FC0
3BE0
10F0
1FF8
7FF8
FFF8
F078
E038
E038
F078
FFF0
7FE0
1F80
ENDCHAR
STARTCHAR ntilde
ENCODING 241
SWIDTH 748 0
DWIDTH 15 0
BBX 13 15 1 0
BITMAP
1E60
3FE0
3FC0
0000
F7E0
FFF0
FFF8
F078
F078
F078
F078
F078
F078
F078
F078
ENDCHAR
STARTCHAR ograve
ENCODING 242
SWIDTH 755 0
DWIDTH 15 0
BBX 13 15 1 0
BITMAP
3C00
1E00
0F00
0000
1FC0
7FF0
FFF8
F078
E038
E038
E038
F078
FFF8
7FF0
1FC0
ENDCHAR
STARTCHAR oacute
ENCODING 243
SWIDTH 755 0
DWIDTH 15 0
BBX 13 15 1 0
BITMAP
01E0
03C0
0780
0000
1FC0
7FF0
FFF8
F078
E038
E038
E038
F078
FFF8
7FF0
1FC0
ENDCHAR
STARTCHAR ocircumflex
ENCODING 244
SWIDTH 755 0
DWIDTH 15 0
BBX 13 15 1 0
BITMAP
0F80
1DC0
3DF0
4000
1FC0
7FF0
FFF8
F078
E038
E038
E038
F078
FFF8
7FF0
1FC0
ENDCHAR
STARTCHAR otilde
ENCODING 245
SWIDTH 755 0
DWIDTH 15 0
BBX 13 15 1 0
BITMAP
1E60
3FE0
3FC0
0000
1FC0
7FF0
FFF8
F078
E038
E038
E038
F078
FFF8
7FF0
1FC0
ENDCHAR
STARTCHAR odieresis
ENCODING 246
SWIDTH 755 0
DWIDTH 15 0
BBX 13 15 1 0
BITMAP
3CE0
3CE0
3CE0
0000
1FC0
7FF0
FFF8
F078
E038
E038
E038
F078
FFF8
7FF0
1FC0
ENDCHAR
STARTCHAR divide
ENCODING 247
SWIDTH 674 0
DWIDTH 13 0
BBX 11 12 1 1
BITMAP
0E00
0E00
0E00
0000
0000
FFE0
FFE0
FFE0
0000
0E00
0E00
0E00
ENDCHAR
STARTCHAR oslash
ENCODING 248
SWIDTH 755 0
DWIDTH 15 0
BBX 13 11 1 0
BITMAP
1FC8
7FF0
FFF8
F0F8
E1B8
E338
EC38
F878
7FF8
7FF0
9FC0
ENDCHAR
STARTCHAR ugrave
ENCODING 249
SWIDTH 748 0
DWIDTH 15 0
BBX 13 15 1 0
BITMAP
3C00
1E00
0F00
0000
F078
F078
F078
F078
F078
F078
F078
F078
FFF8
7FF8
3F78
ENDCHAR
STARTCHAR uacute
ENCODING 250
SWIDTH 748 0
DWIDTH 15 0
BBX 13 15 1 0
BITMAP
01E0
03C0
0780
0000
F078
F078
F078
F078
F078
F078
F078
F078
FFF8
7FF8
3F78
ENDCHAR
STARTCHAR ucircumflex
ENCODING 251
SWIDTH 748 0
DWIDTH 15 0
BBX 13 15 1 0
BITMAP
0F80
1DC0
7DF0
0000
F078
F078
F078
F078
F078
F078
F078
F078
FFF8
7FF8
3F78
ENDCHAR
STARTCHAR udieresis
ENCODING 252
SWIDTH 748 0
DWIDTH 15 0
BBX 13 15 1 0
BITMAP
38E0
38E0
38E0
0000
F078
F078
F078
F078
F078
F078
F078
F078
FFF8
7FF8
3F78
ENDCHAR
STARTCHAR yacute
ENCODING 253
SWIDTH 722 0
DWIDTH 14 0
BBX 14 19 0 -4
BITMAP
01F0
01E0
0380
0000
F03C
783C
7878
3878
3C70
1CF0
1EE0
0FE0
0FC0
07C0
0780
0780
7F00
7F00
7C00
ENDCHAR
STARTCHAR thorn
ENCODING 254
SWIDTH 766 0
DWIDTH 15 0
BBX 14 18 1 -4
BITMAP
F000
F000
F000
F7E0
FFF0
FFF8
F078
F03C
E03C
F03C
F078
FFF8
FFF0
F7E0
F000
F000
F000
F000
ENDCHAR
STARTCHAR ydieresis
ENCODING 255
SWIDTH 722 0
DWIDTH 14 0
BBX 14 19 0 -4
BITMAP
1CF0
1CF0
1CF0
0000
F03C
783C
7878
3878
3C70
1CF0
1EE0
0FE0
0FC0
07C0
0780
0780
7F00
7F00
7C00
ENDCHAR
STARTCHAR Amacron
ENCODING 256
SWIDTH 937 0
DWIDTH 19 0
BBX 19 18 0 0
BITMAP
07F800
07F800
07F800
000000
01F000
03F000
03F800
07B800
071C00
0F1C00
0E1E00
1E0E00
1FFF00
3FFF00
3FFF80
780380
7803C0
F001E0
ENDCHAR
STARTCHAR amacron
ENCODING 257
SWIDTH 719 0
DWIDTH 14 0
BBX 13 15 1 0
BITMAP
3FE0
3FE0
3FE0
0000
1FC0
7FF0
7FF0
F070
07F0
7FF0
F070
E0F0
FFF0
FF70
7E78
ENDCHAR
STARTCHAR Abreve
ENCODING 258
SWIDTH 937 0
DWIDTH 19 0
BBX 19 18 0 0
BITMAP
07F800
07F800
01F000
000000
01F000
03F000
03F800
07B800
071C00
0F1C00
0E1E00
1E0E00
1FFF00
3FFF00
3FFF80
780380
7803C0
F001E0
ENDCHAR
STARTCHAR abreve
ENCODING 259
SWIDTH 719 0
DWIDTH 14 0
BBX 13 15 1 0
BITMAP
3FE0
3FC0
0F80
0000
1FC0
7FF0
7FF0
F070
07F0
7FF0
F070
E0F0
FFF0
FF70
7E78
ENDCHAR
STARTCHAR Aogonek
ENCODING 260
SWIDTH 937 0
DWIDTH 19 0
BBX 19 19 0 -5
BITMAP
01F000
03F000
03F800
07B800
071C00
0F1C00
0E1E00
1E0E00
1FFF00
3FFF00
3FFF80
780380
7803C0
F001E0
000380
000700
000700
0007C0
0003C0
ENDCHAR
STARTCHAR aogonek
ENCODING 261
SWIDTH 719 0
DWIDTH 14 0
BBX 13 15 1 -4
BITMAP
1FC0
7FF0
7FF0
F070
07F0
7FF0
F070
E0F0
FFF0
FF70
7E78
0060
01C0
01F8
00F8
ENDCHAR
STARTCHAR Cacute
ENCODING 262
SWIDTH 914 0
DWIDTH 18 0
BBX 17 18 1 0
BITMAP
00F800
00F000
01C000
000000
07F000
1FFC00
7FFE00
781F00
F00F00
F00000
F00000
F00000
F00F80
F00F00
781F00
7FFE00
1FFC00
07F000
ENDCHAR
STARTCHAR cacute
ENCODING 263
SWIDTH 747 0
DWIDTH 15 0
BBX 13 15 1 0
BITMAP
01E0
03C0
0780
0000
1FC0
7FF0
FFF8
F078
E000
E000
E000
F078
FFF8
7FF0
1FC0
ENDCHAR
STARTCHAR Ccircumflex
ENCODING 264
SWIDTH 914 0
DWIDTH 18 0
BBX 17 18 1 0
BITMAP
03E000
07F000
1E7800
000000
07F000
1FFC00
7FFE00
781F00
F00F00
F00000
F00000
F00000
F00F80
F00F00
781F00
7FFE00
1FFC00
07F000
ENDCHAR
STARTCHAR ccircumflex
ENCODING 265
SWIDTH 747 0
DWIDTH 15 0
BBX 13 15 1 0
BITMAP
0F80
1DC0
7DE0
0010
1FC0
7FF0
FFF8
F078
E000
E000
E000
F078
FFF8
7FF0
1FC0
ENDCHAR
STARTCHAR Cdotaccent
ENCODING 266
SWIDTH 914 0
DWIDTH 18 0
BBX 17 18 1 0
BITMAP
01C000
01C000
01C000
000000
07F000
1FFC00
7FFE00
781F00
F00F00
F00000
F00000
F00000
F00F80
F00F00
781F00
7FFE00
1FFC00
07F000
ENDCHAR
STARTCHAR cdotaccent
ENCODING 267
SWIDTH 747 0
DWIDTH 15 0
BBX 13 15 1 0
BITMAP
0700
0700
0700
0000
1FC0
7FF0
FFF8
F078
E000
E000
E000
F078
FFF8
7FF0
1FC0
ENDCHAR
STARTCHAR Ccaron
ENCODING 268
SWIDTH 914 0
DWIDTH 18 0
BBX 17 18 1 0
BITMAP
1E3800
0F7000
07E000
000000
07F000
1FFC00
7FFE00
781F00
F00F00
F00000
F00000
F00000
F00F80
F00F00
781F00
7FFE00
1FFC00
07F000
ENDCHAR
STARTCHAR ccaron
ENCODING 269
SWIDTH 747 0
DWIDTH 15 0
BBX 13 15 1 0
BITMAP
78F0
1DC0
0F80
0000
1FC0
7FF0
FFF8
F078
E000
E000
E000
F078
FFF8
7FF0
1FC0
ENDCHAR
STARTCHAR Dcaron
ENCODING 270
SWIDTH 889 0
DWIDTH 18 0
BBX 16 18 1 0
BITMAP
3C70
1EE0
07C0
0000
FFF0
FFFC
FFFE
F01E
F00F
F00F
F00F
F00F
F00F
F00F
F01E
FFFE
FFFC
FFF0
ENDCHAR
STARTCHAR dcaron
ENCODING 271
SWIDTH 912 0
DWIDTH 18 0
BBX 17 14 1 0
BITMAP
003B80
003B80
003B80
1F3B00
7FF800
FFF800
F07800
E03800
E03800
E03800
F07800
FFF800
7FF800
1F3800
ENDCHAR
STARTCHAR Dcroat
ENCODING 272
SWIDTH 903 0
DWIDTH 18 0
BBX 17 14 0 0
BITMAP
3FF800
3FFE00
3FFF00
380F80
380780
FF8780
FF8780
FF8780
380780
380780
380F80
3FFF00
3FFE00
3FF800
ENDCHAR
STARTCHAR dcroat
ENCODING 273
SWIDTH 780 0
DWIDTH 16 0
BBX 15 14 1 0
BITMAP
01FE
01FE
0038
1F38
7FF8
FFF8
F078
E038
E038
E038
F078
FFF8
7FF8
1F38
ENDCHAR
STARTCHAR Emacron
ENCODING 274
SWIDTH 795 0
DWIDTH 16 0
BBX 14 18 1 0
BITMAP
1FE0
1FE0
1FE0
0000
FFFC
FFFC
FFFC
F000
F000
FFF8
FFF8
FFF8
F000
F000
F000
FFFC
FFFC
FFFC
ENDCHAR
STARTCHAR emacron
ENCODING 275
SWIDTH 748 0
DWIDTH 15 0
BBX 13 15 1 0
BITMAP
3FE0
3FE0
3FE0
0000
1FC0
7FF0
F8F0
F078
FFF8
FFF8
FFF8
F000
F8F8
7FF0
1FC0
ENDCHAR
STARTCHAR Ebreve
ENCODING 276
SWIDTH 795 0
DWIDTH 16 0
BBX 14 18 1 0
BITMAP
1FE0
1FE0
07C0
0000
FFFC
FFFC
FFFC
F000
F000
FFF8
FFF8
FFF8
F000
F000
F000
FFFC
FFFC
FFFC
ENDCHAR
STARTCHAR ebreve
ENCODING 277
SWIDTH 748 0
DWIDTH 15 0
BBX 13 15 1 0
BITMAP
3FE0
1FC0
0F80
0000
1FC0
7FF0
F8F0
F078
FFF8
FFF8
FFF8
F000
F8F8
7FF0
1FC0
ENDCHAR
STARTCHAR Edotaccent
ENCODING 278
SWIDTH 795 0
DWIDTH 16 0
BBX 14 18 1 0
BITMAP
0780
0780
0780
0000
FFFC
FFFC
FFFC
F000
F000
FFF8
FFF8
FFF8
F000
F000
F000
FFFC
FFFC
FFFC
ENDCHAR
STARTCHAR edotaccent
ENCODING 279
SWIDTH 748 0
DWIDTH 15 0
BBX 13 15 1 0
BITMAP
0700
0700
0700
0000
1FC0
7FF0
F8F0
F078
FFF8
FFF8
FFF8
F000
F8F8
7FF0
1FC0
ENDCHAR
STARTCHAR Eogonek
ENCODING 280
SWIDTH 795 0
DWIDTH 16 0
BBX 14 19 1 -5
BITMAP
FFFC
FFFC
FFFC
F000
F000
FFF8
FFF8
FFF8
F000
F000
F000
FFFC
FFFC
FFFC
0038
0070
0070
007C
003C
ENDCHAR
STARTCHAR eogonek
ENCODING 281
SWIDTH 748 0
DWIDTH 15 0
BBX 13 15 1 -4
BITMAP
1FC0
7FF0
FFF0
F078
FFF8
FFF8
FFF8
F078
FFF8
7FF0
1FC0
0700
0700
07C0
07C0
ENDCHAR
STARTCHAR Ecaron
ENCODING 282
SWIDTH 795 0
DWIDTH 16 0
BBX 14 18 1 0
BITMAP
3CF0
1FE0
0FC0
0000
FFFC
FFFC
FFFC
F000
F000
FFF8
FFF8
FFF8
F000
F000
F000
FFFC
FFFC
FFFC
ENDCHAR
STARTCHAR ecaron
ENCODING 283
SWIDTH 748 0
DWIDTH 15 0
BBX 13 15 1 0
BITMAP
78F0
1DC0
0F80
0000
1FC0
7FF0
F8F0
F078
FFF8
FFF8
FFF8
F000
F8F8
7FF0
1FC0
ENDCHAR
STARTCHAR Gcircumflex
ENCODING 284
SWIDTH 949 0
DWIDTH 19 0
BBX 17 18 1 0
BITMAP
03E000
077000
0F7C00
000000
07F800
1FFE00
7FFF00
780F00
F00780
F00000
F07F80
F07F80
F07F80
F00780
780F80
7FFF80
1FFF80
07F380
ENDCHAR
STARTCHAR gcircumflex
ENCODING 285
SWIDTH 757 0
DWIDTH 15 0
BBX 13 19 1 -4
BITMAP
0F80
1FC0
79E0
0000
1F38
7FB8
FFF8
F078
E038
E038
E078
F0F8
7FF8
3FB8
0C38
F078
F8F8
7FF0
3FC0
ENDCHAR
STARTCHAR Gbreve
ENCODING 286
SWIDTH 949 0
DWIDTH 19 0
BBX 17 18 1 0
BITMAP
0FF800
07F000
03E000
000000
07F800
1FFE00
7FFF00
780F00
F00780
F00000
F07F80
F07F80
F07F80
F00780
780F80
7FFF80
1FFF80
07F380
ENDCHAR
STARTCHAR gbreve
ENCODING 287
SWIDTH 757 0
DWIDTH 15 0
BBX 13 19 1 -4
BITMAP
3FE0
3FC0
0F80
0000
1F38
7FB8
FFF8
F078
E038
E038
E078
F0F8
7FF8
3FB8
0C38
F078
F8F8
7FF0
3FC0
ENDCHAR
STARTCHAR Gdotaccent
ENCODING 288
SWIDTH 949 0
DWIDTH 19 0
BBX 17 18 1 0
BITMAP
01C000
01C000
01C000
000000
07F800
1FFE00
7FFF00
780F00
F00780
F00000
F07F80
F07F80
F07F80
F00780
780F80
7FFF80
1FFF80
07F380
ENDCHAR
STARTCHAR gdotaccent
ENCODING 289
SWIDTH 757 0
DWIDTH 15 0
BBX 13 19 1 -4
BITMAP
0700
0700
0700
0000
1F38
7FB8
FFF8
F078
E038
E038
E078
F0F8
7FF8
3FB8
0C38
F078
F8F8
7FF0
3FC0
ENDCHAR
STARTCHAR uni0122
ENCODING 290
SWIDTH 949 0
DWIDTH 19 0
BBX 17 20 1 -6
BITMAP
07F800
1FFE00
7FFF00
780F00
F00780
F00000
F07F80
F07F80
F07F80
F00780
780F80
7FFF80
1FFF80
07F380
000000
01C000
01C000
01C000
00C000
01C000
ENDCHAR
STARTCHAR uni0123
ENCODING 291
SWIDTH 757 0
DWIDTH 15 0
BBX 13 21 1 -4
BITMAP
0300
0600
0600
0700
0700
0700
1F38
7FB8
FFF8
F078
E038
E038
E078
F0F8
7FF8
3FB8
0C38
F078
F8F8
7FF0
3FC0
ENDCHAR
STARTCHAR Hcircumflex
ENCODING 292
SWIDTH 901 0
DWIDTH 18 0
BBX 16 18 1 0
BITMAP
03C0
07F0
1E78
0000
F00F
F00F
F00F
F00F
F00F
FFFF
FFFF
FFFF
F00F
F00F
F00F
F00F
F00F
F00F
ENDCHAR
STARTCHAR hcircumflex
ENCODING 293
SWIDTH 748 0
DWIDTH 15 0
BBX 16 18 -2 0
BITMAP
1E00
3F00
F3C0
0000
1E00
1E00
1E00
1EFC
1FFE
1FFF
1E0F
1E0F
1E0F
1E0F
1E0F
1E0F
1E0F
1E0F
ENDCHAR
STARTCHAR Hbar
ENCODING 294
SWIDTH 916 0
DWIDTH 18 0
BBX 18 14 0 0
BITMAP
780780
FFFFC0
FFFFC0
FFFFC0
780780
7FFF80
7FFF80
7FFF80
780780
780780
780780
780780
780780
780780
ENDCHAR
STARTCHAR hbar
ENCODING 295
SWIDTH 762 0
DWIDTH 15 0
BBX 14 14 0 0
BITMAP
7800
FF00
FF00
79F0
7FF8
7FFC
7C3C
781C
781C
781C
781C
781C
781C
781C
ENDCHAR
STARTCHAR Itilde
ENCODING 296
SWIDTH 594 0
DWIDTH 12 0
BBX 12 18 0 0
BITMAP
3CE0
7FC0
7FC0
0000
FFF0
FFF0
FFF0
0F00
0F00
0F00
0F00
0F00
0F00
0F00
0F00
FFF0
FFF0
FFF0
ENDCHAR
STARTCHAR itilde
ENCODING 297
SWIDTH 287 0
DWIDTH 6 0
BBX 10 15 -2 0
BITMAP
79C0
FF80
FF80
0000
1E00
1E00
1E00
1E00
1E00
1E00
1E00
1E00
1E00
1E00
1E00
ENDCHAR
STARTCHAR Imacron
ENCODING 298
SWIDTH 594 0
DWIDTH 12 0
BBX 12 18 0 0
BITMAP
3FC0
3FC0
3FC0
0000
FFF0
FFF0
FFF0
0F00
0F00
0F00
0F00
0F00
0F00
0F00
0F00
FFF0
FFF0
FFF0
ENDCHAR
STARTCHAR imacron
ENCODING 299
SWIDTH 287 0
DWIDTH 6 0
BBX 8 15 -1 0
BITMAP
FF
FF
FF
00
3C
3C
3C
3C
3C
3C
3C
3C
3C
3C
3C
ENDCHAR
STARTCHAR Ibreve
ENCODING 300
SWIDTH 594 0
DWIDTH 12 0
BBX 12 18 0 0
BITMAP
3FC0
3FC0
1F00
0000
FFF0
FFF0
FFF0
0F00
0F00
0F00
0F00
0F00
0F00
0F00
0F00
FFF0
FFF0
FFF0
ENDCHAR
STARTCHAR ibreve
ENCODING 301
SWIDTH 287 0
DWIDTH 6 0
BBX 8 15 -1 0
BITMAP
FF
FF
7C
00
3C
3C
3C
3C
3C
3C
3C
3C
3C
3C
3C
ENDCHAR
STARTCHAR Iogonek
ENCODING 302
SWIDTH 594 0
DWIDTH 12 0
BBX 12 19 0 -5
BITMAP
FFF0
FFF0
FFF0
0F00
0F00
0F00
0F00
0F00
0F00
0F00
0F00
FFF0
FFF0
FFF0
0E00
1C00
3800
3F00
0F00
ENDCHAR
STARTCHAR iogonek
ENCODING 303
SWIDTH 287 0
DWIDTH 6 0
BBX 6 19 -1 -5
BITMAP
3C
3C
3C
3C
3C
3C
3C
3C
3C
3C
3C
3C
3C
3C
38
70
E0
FC
3C
ENDCHAR
STARTCHAR Idotaccent
ENCODING 304
SWIDTH 594 0
DWIDTH 12 0
BBX 12 18 0 0
BITMAP
0F00
0F00
0F00
0000
FFF0
FFF0
FFF0
0F00
0F00
0F00
0F00
0F00
0F00
0F00
0F00
FFF0
FFF0
FFF0
ENDCHAR
STARTCHAR dotlessi
ENCODING 305
SWIDTH 287 0
DWIDTH 6 0
BBX 4 11 1 0
BITMAP
F0
F0
F0
F0
F0
F0
F0
F0
F0
F0
F0
ENDCHAR
STARTCHAR IJ
ENCODING 306
SWIDTH 1401 0
DWIDTH 28 0
BBX 27 14 0 0
BITMAP
FFF001E0
FFF001E0
FFF001E0
0F0001E0
0F0001E0
0F0001E0
0F0001E0
0F0F01E0
0F0F01E0
0F0F01E0
0F0783C0
FFF7FFC0
FFF3FF80
FFF0FE00
ENDCHAR
STARTCHAR ij
ENCODING 307
SWIDTH 574 0
DWIDTH 11 0
BBX 9 19 1 -4
BITMAP
F380
F380
F380
0000
F380
F380
F380
F380
F380
F380
F380
F380
F380
F380
F380
0380
0F80
0F80
0F00
ENDCHAR
STARTCHAR Jcircumflex
ENCODING 308
SWIDTH 807 0
DWIDTH 16 0
BBX 17 18 1 0
BITMAP
003E00
007F00
01E780
000000
003C00
003C00
003C00
003C00
003C00
003C00
003C00
E03C00
E03C00
E03C00
F03800
FFF800
7FF000
1FC000
ENDCHAR
STARTCHAR jcircumflex
ENCODING 309
SWIDTH 287 0
DWIDTH 6 0
BBX 10 19 -2 -4
BITMAP
1E00
7F00
F3C0
0000
1E00
1E00
1E00
1E00
1E00
1E00
1E00
1E00
1E00
1E00
1E00
1E00
7E00
7C00
7C00
ENDCHAR
STARTCHAR uni0136
ENCODING 310
SWIDTH 866 0
DWIDTH 17 0
BBX 16 20 1 -6
BITMAP
F03F
F07C
F0F0
F1E0
F3C0
FF80
FF00
FF80
F7C0
F3E0
F1F0
F0F8
F03C
F01F
0000
03C0
03C0
03C0
00C0
0380
ENDCHAR
STARTCHAR uni0137
ENCODING 311
SWIDTH 689 0
DWIDTH 14 0
BBX 13 20 1 -6
BITMAP
F000
F000
F000
F0F0
F1E0
F3C0
F780
FE00
FE00
FF00
F780
F3C0
F1E0
F0F8
0000
0F00
0F00
0F00
0300
0E00
ENDCHAR
STARTCHAR kgreenlandic
ENCODING 312
SWIDTH 689 0
DWIDTH 14 0
BBX 13 11 1 0
BITMAP
F0F0
F3E0
F780
FF00
FF00
FF00
FF80
F3C0
F1E0
F1F0
F0F8
ENDCHAR
STARTCHAR Lacute
ENCODING 313
SWIDTH 775 0
DWIDTH 16 0
BBX 14 18 1 0
BITMAP
3E00
3C00
7000
0000
F000
F000
F000
F000
F000
F000
F000
F000
F000
F000
F000
FFFC
FFFC
FFFC
ENDCHAR
STARTCHAR lacute
ENCODING 314
SWIDTH 287 0
DWIDTH 6 0
BBX 7 18 1 0
BITMAP
3E
78
F0
00
F0
F0
F0
F0
F0
F0
F0
F0
F0
F0
F0
F0
F0
F0
ENDCHAR
STARTCHAR uni013B
ENCODING 315
SWIDTH 775 0
DWIDTH 16 0
BBX 14 20 1 -6
BITMAP
F000
F000
F000
F000
F000
F000
F000
F000
F000
F000
F000
FFFC
FFFC
FFFC
0000
0780
0780
0780
0180
0700
ENDCHAR
STARTCHAR uni013C
ENCODING 316
SWIDTH 287 0
DWIDTH 6 0
BBX 4 20 1 -6
BITMAP
F0
F0
F0
F0
F0
F0
F0
F0
F0
F0
F0
F0
F0
F0
00
F0
F0
F0
30
E0
ENDCHAR
STARTCHAR Lcaron
ENCODING 317
SWIDTH 775 0
DWIDTH 16 0
BBX 14 14 1 0
BITMAP
F3C0
F3C0
F3C0
F0C0
F0C0
F380
F000
F000
F000
F000
F000
FFFC
FFFC
FFFC
ENDCHAR
STARTCHAR lcaron
ENCODING 318
SWIDTH 433 0
DWIDTH 9 0
BBX 8 14 1 0
BITMAP
F7
F7
F6
F6
F0
F0
F0
F0
F0
F0
F0
F0
F0
F0
ENDCHAR
STARTCHAR Ldot
ENCODING 319
SWIDTH 775 0
DWIDTH 16 0
BBX 14 14 1 0
BITMAP
F000
F000
F000
F000
F0C0
F1E0
F1E0
F0C0
F000
F000
F000
FFFC
FFFC
FFFC
ENDCHAR
STARTCHAR ldot
ENCODING 320
SWIDTH 517 0
DWIDTH 10 0
BBX 9 14 1 0
BITMAP
F000
F000
F000
F000
F000
F700
F780
F780
F700
F000
F000
F000
F000
F000
ENDCHAR
STARTCHAR Lslash
ENCODING 321
SWIDTH 777 0
DWIDTH 16 0
BBX 15 14 0 0
BITMAP
7800
7800
7800
7820
78E0
7BE0
7FC0
7F00
FC00
F800
F800
7FFE
7FFE
7FFE
ENDCHAR
STARTCHAR lslash
ENCODING 322
SWIDTH 344 0
DWIDTH 7 0
BBX 7 14 0 0
BITMAP
38
38
38
38
3E
3E
7C
F8
F8
38
38
38
38
38
ENDCHAR
STARTCHAR Nacute
ENCODING 323
SWIDTH 923 0
DWIDTH 18 0
BBX 16 18 1 0
BITMAP
00F8
00F0
01C0
0000
F807
FC07
FE07
FF07
F707
F787
F3C7
F1C7
F0E7
F0F7
F07F
F03F
F03F
F01F
ENDCHAR
STARTCHAR nacute
ENCODING 324
SWIDTH 748 0
DWIDTH 15 0
BBX 13 15 1 0
BITMAP
01E0
03C0
0780
0000
F7E0
FFF0
FFF8
F078
F078
F078
F078
F078
F078
F078
F078
ENDCHAR
STARTCHAR uni0145
ENCODING 325
SWIDTH 923 0
DWIDTH 18 0
BBX 16 20 1 -6
BITMAP
F807
FC07
FE07
FF07
F707
F787
F3C7
F1C7
F0E7
F0F7
F07F
F03F
F03F
F01F
0000
03C0
03C0
03C0
00C0
0380
ENDCHAR
STARTCHAR uni0146
ENCODING 326
SWIDTH 748 0
DWIDTH 15 0
BBX 13 17 1 -6
BITMAP
F7E0
FFF0
FFF8
F078
F078
F078
F078
F078
F078
F078
F078
0000
0700
0700
0700
0300
0600
ENDCHAR
STARTCHAR Ncaron
ENCODING 327
SWIDTH 923 0
DWIDTH 18 0
BBX 16 18 1 0
BITMAP
1E78
0FF0
07E0
0000
F807
FC07
FE07
FF07
F707
F787
F3C7
F1C7
F0E7
F0F7
F07F
F03F
F03F
F01F
ENDCHAR
STARTCHAR ncaron
ENCODING 328
SWIDTH 748 0
DWIDTH 15 0
BBX 13 15 1 0
BITMAP
78F0
1DC0
0F80
0000
F7E0
FFF0
FFF8
F078
F078
F078
F078
F078
F078
F078
F078
ENDCHAR
STARTCHAR napostrophe
ENCODING 329
SWIDTH 895 0
DWIDTH 18 0
BBX 17 14 0 0
BITMAP
E00000
E00000
E00000
EE7E00
0FFF00
0FFF80
0F0780
0F0780
0F0780
0F0780
0F0780
0F0780
0F0780
0F0780
ENDCHAR
STARTCHAR Eng
ENCODING 330
SWIDTH 900 0
DWIDTH 18 0
BBX 16 18 1 -4
BITMAP
F80F
FC0F
FE0F
FE0F
FF0F
F78F
F3CF
F1EF
F1FF
F0FF
F07F
F03F
F01F
F00F
0F0F
07BE
07FE
01F8
ENDCHAR
STARTCHAR eng
ENCODING 331
SWIDTH 748 0
DWIDTH 15 0
BBX 13 15 1 -4
BITMAP
F7E0
FFF0
FFF8
F078
F078
F078
F078
F078
F078
F078
F078
0078
01F8
01F8
01F0
ENDCHAR
STARTCHAR Omacron
ENCODING 332
SWIDTH 951 0
DWIDTH 19 0
BBX 17 18 1 0
BITMAP
0FF800
0FF800
0FF800
000000
07F000
1FFC00
7FFF00
780F00
F00780
F00780
F00780
F00780
F00780
F00780
780F00
7FFF00
1FFC00
07F000
ENDCHAR
STARTCHAR omacron
ENCODING 333
SWIDTH 755 0
DWIDTH 15 0
BBX 13 15 1 0
BITMAP
3FE0
3FE0
3FE0
0000
1FC0
7FF0
FFF8
F078
E038
E038
E038
F078
FFF8
7FF0
1FC0
ENDCHAR
STARTCHAR Obreve
ENCODING 334
SWIDTH 951 0
DWIDTH 19 0
BBX 17 18 1 0
BITMAP
0FF800
07F000
03E000
000000
07F000
1FFC00
7FFF00
780F00
F00780
F00780
F00780
F00780
F00780
F00780
780F00
7FFF00
1FFC00
07F000
ENDCHAR
STARTCHAR obreve
ENCODING 335
SWIDTH 755 0
DWIDTH 15 0
BBX 13 15 1 0
BITMAP
3FE0
1FC0
0F80
0000
1FC0
7FF0
FFF8
F078
E038
E038
E038
F078
FFF8
7FF0
1FC0
ENDCHAR
STARTCHAR Ohungarumlaut
ENCODING 336
SWIDTH 951 0
DWIDTH 19 0
BBX 17 18 1 0
BITMAP
03DE00
07BC00
073800
080000
07F000
1FFC00
7FFF00
780F00
F00780
F00780
F00780
F00780
F00780
F00780
780F00
7FFF00
1FFC00
07F000
ENDCHAR
STARTCHAR ohungarumlaut
ENCODING 337
SWIDTH 755 0
DWIDTH 15 0
BBX 13 15 1 0
BITMAP
0F78
1E70
1CE0
0000
1FC0
7FF0
FFF8
F078
E038
E038
E038
F078
FFF8
7FF0
1FC0
ENDCHAR
STARTCHAR OE
ENCODING 338
SWIDTH 1413 0
DWIDTH 28 0
BBX 26 14 1 0
BITMAP
07E7FFC0
3FFFFFC0
7FFFFFC0
780F8000
F0078000
F007FFC0
F007FFC0
F007FFC0
F0078000
F0078000
780F8000
7FFFFFC0
3FFFFFC0
07E7FFC0
ENDCHAR
STARTCHAR oe
ENCODING 339
SWIDTH 1209 0
DWIDTH 24 0
BBX 23 11 1 0
BITMAP
1F87E0
7FFFF8
F8FC7C
F0781C
E07FFC
E07FFE
E07FFC
F07800
F8FC7C
7FFFF8
1F87F0
ENDCHAR
STARTCHAR Racute
ENCODING 340
SWIDTH 875 0
DWIDTH 18 0
BBX 16 18 1 0
BITMAP
00F8
01E0
03C0
0000
FFFC
FFFE
FFFF
F00F
F00F
F00E
FFFE
FFF0
FFFE
F00E
F00E
F00E
F00E
F00E
ENDCHAR
STARTCHAR racute
ENCODING 341
SWIDTH 534 0
DWIDTH 11 0
BBX 10 15 1 0
BITMAP
07C0
0F00
1E00
0000
F780
FF80
FF80
F800
F000
F000
F000
F000
F000
F000
F000
ENDCHAR
STARTCHAR uni0156
ENCODING 342
SWIDTH 875 0
DWIDTH 18 0
BBX 16 20 1 -6
BITMAP
FFFC
FFFE
FFFF
F00F
F00F
F00E
FFFE
FFF0
FFFE
F00E
F00E
F00E
F00E
F00E
0000
03C0
03C0
03C0
00C0
0380
ENDCHAR
STARTCHAR uni0157
ENCODING 343
SWIDTH 534 0
DWIDTH 11 0
BBX 9 17 1 -6
BITMAP
F780
FF80
FF80
F800
F000
F000
F000
F000
F000
F000
F000
0000
F000
F000
F000
3000
E000
ENDCHAR
STARTCHAR Rcaron
ENCODING 344
SWIDTH 875 0
DWIDTH 18 0
BBX 16 18 1 0
BITMAP
3C70
1EE0
07C0
0000
FFFC
FFFE
FFFF
F00F
F00F
F00E
FFFE
FFF0
FFFE
F00E
F00E
F00E
F00E
F00E
ENDCHAR
STARTCHAR rcaron
ENCODING 345
SWIDTH 534 0
DWIDTH 11 0
BBX 10 15 1 0
BITMAP
E3C0
7780
3F00
0000
F780
FF80
FF80
F800
F000
F000
F000
F000
F000
F000
F000
ENDCHAR
STARTCHAR Sacute
ENCODING 346
SWIDTH 836 0
DWIDTH 17 0
BBX 16 18 0 0
BITMAP
00F8
00F0
01C0
0000
0FF0
3FFC
7FFE
781E
7801
7F00
3FFC
0FFE
001F
F00F
780F
7FFF
3FFE
0FF8
ENDCHAR
STARTCHAR sacute
ENCODING 347
SWIDTH 706 0
DWIDTH 14 0
BBX 13 15 0 0
BITMAP
01F0
03C0
0780
0000
1FC0
7FF0
7878
7078
7FC0
3FF8
01F8
F038
7878
7FF8
1FE0
ENDCHAR
STARTCHAR Scircumflex
ENCODING 348
SWIDTH 836 0
DWIDTH 17 0
BBX 16 18 0 0
BITMAP
03C0
07F0
1E78
0000
0FF0
3FFC
7FFE
781E
7801
7F00
3FFC
0FFE
001F
F00F
780F
7FFF
3FFE
0FF8
ENDCHAR
STARTCHAR scircumflex
ENCODING 349
SWIDTH 706 0
DWIDTH 14 0
BBX 13 15 0 0
BITMAP
0F80
1FC0
3CF0
0000
1FC0
7FF0
7878
7078
7FC0
3FF8
01F8
F038
7878
7FF8
1FE0
ENDCHAR
STARTCHAR Scedilla
ENCODING 350
SWIDTH 836 0
DWIDTH 17 0
BBX 16 18 0 -4
BITMAP
0FF0
3FFC
7FFE
781E
7801
7F00
3FFC
0FFE
001F
F00F
780F
7FFF
3FFE
0FF8
0180
01F0
0070
03F0
ENDCHAR
STARTCHAR scedilla
ENCODING 351
SWIDTH 706 0
DWIDTH 14 0
BBX 13 15 0 -4
BITMAP
1FC0
7FF0
7FF8
7078
7F00
3FF0
0078
F038
7FF8
7FF8
1FE0
0300
07E0
00E0
0FC0
ENDCHAR
STARTCHAR Scaron
ENCODING 352
SWIDTH 836 0
DWIDTH 17 0
BBX 16 18 0 0
BITMAP
1E78
0FF0
07E0
0000
0FF0
3FFC
7FFE
781E
7801
7F00
3FFC
0FFE
001F
F00F
780F
7FFF
3FFE
0FF8
ENDCHAR
STARTCHAR scaron
ENCODING 353
SWIDTH 706 0
DWIDTH 14 0
BBX 13 15 0 0
BITMAP
38F0
1DE0
0FC0
0000
1FC0
7FF0
7878
7078
7FC0
3FF8
01F8
F038
7878
7FF8
1FE0
ENDCHAR
STARTCHAR uni0162
ENCODING 354
SWIDTH 790 0
DWIDTH 16 0
BBX 15 18 0 -4
BITMAP
FFFE
FFFE
FFFE
03C0
03C0
03C0
03C0
03C0
03C0
03C0
03C0
03C0
03C0
03C0
0100
03E0
0070
07E0
ENDCHAR
STARTCHAR uni0163
ENCODING 355
SWIDTH 486 0
DWIDTH 10 0
BBX 9 18 0 -4
BITMAP
3C00
3C00
3C00
FF00
FF00
FF00
3C00
3C00
3C00
3C00
3C00
3F00
3F00
1F00
0C00
0F80
0380
1F80
ENDCHAR
STARTCHAR Tcaron
ENCODING 356
SWIDTH 790 0
DWIDTH 16 0
BBX 15 18 0 0
BITMAP
1E78
0FF0
07E0
0000
FFFE
FFFE
FFFE
03C0
03C0
03C0
03C0
03C0
03C0
03C0
03C0
03C0
03C0
03C0
ENDCHAR
STARTCHAR tcaron
ENCODING 357
SWIDTH 507 0
DWIDTH 10 0
BBX 10 17 0 0
BITMAP
01C0
01C0
01C0
3C80
3D80
3C00
FF00
FF00
FF00
3C00
3C00
3C00
3C00
3C00
3F00
3F00
1F00
ENDCHAR
STARTCHAR Tbar
ENCODING 358
SWIDTH 790 0
DWIDTH 16 0
BBX 15 14 0 0
BITMAP
FFFE
FFFE
FFFE
03C0
03C0
03C0
1FF8
1FF8
1FF8
03C0
03C0
03C0
03C0
03C0
ENDCHAR
STARTCHAR tbar
ENCODING 359
SWIDTH 457 0
DWIDTH 9 0
BBX 8 14 0 0
BITMAP
3C
3C
3C
FF
FF
FF
3C
FF
FF
3C
3C
3F
3F
1F
ENDCHAR
STARTCHAR Utilde
ENCODING 360
SWIDTH 897 0
DWIDTH 18 0
BBX 16 18 1 0
BITMAP
0F38
1FF0
1FF0
0000
F00F
F00F
F00F
F00F
F00F
F00F
F00F
F00F
F00F
F00E
781E
7FFE
3FFC
0FF0
ENDCHAR
STARTCHAR utilde
ENCODING 361
SWIDTH 748 0
DWIDTH 15 0
BBX 13 15 1 0
BITMAP
1E60
3FE0
3FC0
0000
F078
F078
F078
F078
F078
F078
F078
F078
FFF8
7FF8
3F78
ENDCHAR
STARTCHAR Umacron
ENCODING 362
SWIDTH 897 0
DWIDTH 18 0
BBX 16 18 1 0
BITMAP
0FF0
0FF0
0FF0
0000
F00F
F00F
F00F
F00F
F00F
F00F
F00F
F00F
F00F
F00E
781E
7FFE
3FFC
0FF0
ENDCHAR
STARTCHAR umacron
ENCODING 363
SWIDTH 748 0
DWIDTH 15 0
BBX 13 15 1 0
BITMAP
3FE0
3FE0
3FE0
0000
F078
F078
F078
F078
F078
F078
F078
F078
FFF8
7FF8
3F78
ENDCHAR
STARTCHAR Ubreve
ENCODING 364
SWIDTH 897 0
DWIDTH 18 0
BBX 16 18 1 0
BITMAP
0FF0
0FF0
07C0
0000
F00F
F00F
F00F
F00F
F00F
F00F
F00F
F00F
F00F
F00E
781E
7FFE
3FFC
0FF0
ENDCHAR
STARTCHAR ubreve
ENCODING 365
SWIDTH 748 0
DWIDTH 15 0
BBX 13 15 1 0
BITMAP
3FE0
1FC0
0F80
0000
F078
F078
F078
F078
F078
F078
F078
F078
FFF8
7FF8
3F78
ENDCHAR
STARTCHAR Uring
ENCODING 366
SWIDTH 897 0
DWIDTH 18 0
BBX 16 20 1 0
BITMAP
03C0
07E0
0660
07E0
03C0
0000
F00F
F00F
F00F
F00F
F00F
F00F
F00F
F00F
F00F
F00E
781E
7FFE
3FFC
0FF0
ENDCHAR
STARTCHAR uring
ENCODING 367
SWIDTH 748 0
DWIDTH 15 0
BBX 13 17 1 0
BITMAP
0F00
0F80
18C0
0F80
0F00
0000
F078
F078
F078
F078
F078
F078
F078
F078
FFF8
7FF8
3F78
ENDCHAR
STARTCHAR Uhungarumlaut
ENCODING 368
SWIDTH 897 0
DWIDTH 18 0
BBX 16 18 1 0
BITMAP
079C
0738
0E70
0000
F00F
F00F
F00F
F00F
F00F
F00F
F00F
F00F
F00F
F00E
781E
7FFE
3FFC
0FF0
ENDCHAR
STARTCHAR uhungarumlaut
ENCODING 369
SWIDTH 748 0
DWIDTH 15 0
BBX 13 15 1 0
BITMAP
0F78
1EF0
3CE0
0000
F078
F078
F078
F078
F078
F078
F078
F078
FFF8
7FF8
3F78
ENDCHAR
STARTCHAR Uogonek
ENCODING 370
SWIDTH 897 0
DWIDTH 18 0
BBX 16 18 1 -4
BITMAP
F00F
F00F
F00F
F00F
F00F
F00F
F00F
F00F
F00F
F00E
781E
7FFE
3FFC
0FE0
01C0
0380
03E0
01E0
ENDCHAR
STARTCHAR uogonek
ENCODING 371
SWIDTH 748 0
DWIDTH 15 0
BBX 13 15 1 -4
BITMAP
F078
F078
F078
F078
F078
F078
F078
F078
FFF8
7FF8
3F78
0060
00E0
01F8
00F8
ENDCHAR
STARTCHAR Wcircumflex
ENCODING 372
SWIDTH 1234 0
DWIDTH 25 0
BBX 25 18 0 0
BITMAP
007C0000
00FE0000
01E78000
00000000
F03E0780
703E0F00
783E0F00
787E0E00
387F0E00
38771E00
3CE71C00
1CE79C00
1CE3BC00
1EE3B800
0FC3F800
0FC1F800
0FC1F000
0F81F000
ENDCHAR
STARTCHAR wcircumflex
ENCODING 373
SWIDTH 1126 0
DWIDTH 23 0
BBX 22 15 0 0
BITMAP
007800
00FE00
03CF00
000000
F0783C
707C3C
78FC38
38FE78
38EE78
3DEE70
1DCFF0
1FC7F0
1F87E0
0F83E0
0F83C0
ENDCHAR
STARTCHAR Ycircumflex
ENCODING 374
SWIDTH 865 0
DWIDTH 17 0
BBX 17 18 0 0
BITMAP
03E000
07F000
0F3C00
000000
F80780
780F00
3C1E00
1E1E00
1E3C00
0F7800
07F000
03F000
03E000
01C000
01C000
01C000
01C000
01C000
ENDCHAR
STARTCHAR ycircumflex
ENCODING 375
SWIDTH 722 0
DWIDTH 14 0
BBX 14 19 0 -4
BITMAP
07C0
0FE0
3CF0
0000
F03C
783C
7878
3878
3C70
1CF0
1EE0
0FE0
0FC0
07C0
0780
0780
7F00
7F00
7C00
ENDCHAR
STARTCHAR Ydieresis
ENCODING 376
SWIDTH 865 0
DWIDTH 17 0
BBX 17 18 0 0
BITMAP
0F3800
0F3800
0F3800
000000
F80780
780F00
3C1E00
1E1E00
1E3C00
0F7800
07F000
03F000
03E000
01C000
01C000
01C000
01C000
01C000
ENDCHAR
STARTCHAR Zacute
ENCODING 377
SWIDTH 839 0
DWIDTH 17 0
BBX 15 18 1 0
BITMAP
00F8
01E0
03C0
0000
FFFE
FFFE
FFFE
007C
01F8
03E0
07C0
0F80
1F00
3E00
7C00
FFFE
FFFE
FFFE
ENDCHAR
STARTCHAR zacute
ENCODING 378
SWIDTH 679 0
DWIDTH 14 0
BBX 12 15 1 0
BITMAP
03E0
03C0
0700
0000
FFF0
FFF0
FFF0
03E0
0FC0
1F00
3E00
7C00
FFF0
FFF0
FFF0
ENDCHAR
STARTCHAR Zdotaccent
ENCODING 379
SWIDTH 839 0
DWIDTH 17 0
BBX 15 18 1 0
BITMAP
0380
0380
0380
0000
FFFE
FFFE
FFFE
007C
01F8
03E0
07C0
0F80
1F00
3E00
7C00
FFFE
FFFE
FFFE
ENDCHAR
STARTCHAR zdotaccent
ENCODING 380
SWIDTH 679 0
DWIDTH 14 0
BBX 12 15 1 0
BITMAP
0F00
0F00
0F00
0000
FFF0
FFF0
FFF0
03E0
0FC0
1F00
3E00
7C00
FFF0
FFF0
FFF0
ENDCHAR
STARTCHAR Zcaron
ENCODING 381
SWIDTH 839 0
DWIDTH 17 0
BBX 15 18 1 0
BITMAP
3C78
0EE0
07C0
0000
FFFE
FFFE
FFFE
007C
01F8
03E0
07C0
0F80
1F00
3E00
7C00
FFFE
FFFE
FFFE
ENDCHAR
STARTCHAR zcaron
ENCODING 382
SWIDTH 679 0
DWIDTH 14 0
BBX 12 15 1 0
BITMAP
79E0
3FC0
1F80
0000
FFF0
FFF0
FFF0
03E0
0FC0
1F00
3E00
7C00
FFF0
FFF0
FFF0
ENDCHAR
STARTCHAR florin
ENCODING 402
SWIDTH 576 0
DWIDTH 12 0
BBX 11 14 0 0
BITMAP
01E0
07E0
07E0
0700
3FC0
3FC0
3FC0
0E00
0E00
1E00
1E00
FC00
FC00
F800
ENDCHAR
STARTCHAR Oslashacute
ENCODING 510
SWIDTH 951 0
DWIDTH 19 0
BBX 17 19 1 0
BITMAP
007C00
00F800
01E000
000000
000100
07F180
1FFF00
7FFF00
781F00
F03F80
F06780
F0C780
F18780
F30780
FE0780
7C0F00
7FFF00
7FFC00
C7F000
ENDCHAR
STARTCHAR oslashacute
ENCODING 511
SWIDTH 755 0
DWIDTH 15 0
BBX 13 15 1 0
BITMAP
01E0
03C0
0780
0000
1FC8
7FF0
FFF8
F0F8
E1B8
E338
EC38
F878
7FF8
7FF0
9FC0
ENDCHAR
STARTCHAR uni0218
ENCODING 536
SWIDTH 836 0
DWIDTH 17 0
BBX 16 20 0 -6
BITMAP
0FF0
3FFC
7FFE
781E
7801
7F00
3FFC
0FFE
001F
F00F
780F
7FFF
3FFE
0FF8
0000
03C0
03C0
03C0
00C0
0380
ENDCHAR
STARTCHAR uni0219
ENCODING 537
SWIDTH 706 0
DWIDTH 14 0
BBX 13 17 0 -6
BITMAP
1FC0
7FF0
7878
7078
7FC0
3FF8
01F8
F038
7878
7FF8
1FE0
0000
0780
0780
0780
0180
0700
ENDCHAR
STARTCHAR uni021A
ENCODING 538
SWIDTH 790 0
DWIDTH 16 0
BBX 15 20 0 -6
BITMAP
FFFE
FFFE
FFFE
03C0
03C0
03C0
03C0
03C0
03C0
03C0
03C0
03C0
03C0
03C0
0000
03C0
03C0
03C0
00C0
0380
ENDCHAR
STARTCHAR uni021B
ENCODING 539
SWIDTH 457 0
DWIDTH 9 0
BBX 8 20 0 -6
BITMAP
3C
3C
3C
FF
FF
FF
3C
3C
3C
3C
3C
3F
3F
1F
00
1E
1E
1E
06
1C
ENDCHAR
STARTCHAR uni0237
ENCODING 567
SWIDTH 287 0
DWIDTH 6 0
BBX 6 15 -1 -4
BITMAP
3C
3C
3C
3C
3C
3C
3C
3C
3C
3C
3C
3C
FC
F8
F8
ENDCHAR
STARTCHAR uni02BC
ENCODING 700
SWIDTH 313 0
DWIDTH 6 0
BBX 4 6 1 8
BITMAP
F0
F0
F0
30
20
E0
ENDCHAR
STARTCHAR circumflex
ENCODING 710
SWIDTH 639 0
DWIDTH 13 0
BBX 10 3 1 12
BITMAP
1F00
3F80
F3C0
ENDCHAR
STARTCHAR caron
ENCODING 711
SWIDTH 639 0
DWIDTH 13 0
BBX 10 3 1 12
BITMAP
F1C0
7B80
1F00
ENDCHAR
STARTCHAR breve
ENCODING 728
SWIDTH 568 0
DWIDTH 11 0
BBX 9 3 1 12
BITMAP
FF80
7F80
3E00
ENDCHAR
STARTCHAR dotaccent
ENCODING 729
SWIDTH 309 0
DWIDTH 6 0
BBX 4 3 1 12
BITMAP
F0
F0
F0
ENDCHAR
STARTCHAR ring
ENCODING 730
SWIDTH 453 0
DWIDTH 9 0
BBX 7 5 1 12
BITMAP
3C
7E
C6
7E
3C
ENDCHAR
STARTCHAR ogonek
ENCODING 731
SWIDTH 404 0
DWIDTH 8 0
BBX 6 5 1 -5
BITMAP
3C
70
E0
FC
7C
ENDCHAR
STARTCHAR tilde
ENCODING 732
SWIDTH 611 0
DWIDTH 12 0
BBX 10 3 1 12
BITMAP
79C0
7FC0
FF80
ENDCHAR
STARTCHAR hungarumlaut
ENCODING 733
SWIDTH 660 0
DWIDTH 13 0
BBX 11 3 1 12
BITMAP
3DE0
7BC0
F780
ENDCHAR
STARTCHAR gravecomb
ENCODING 768
SWIDTH 0 0
DWIDTH 0 0
BBX 7 3 1 12
BITMAP
F8
3C
1E
ENDCHAR
STARTCHAR acutecomb
ENCODING 769
SWIDTH 0 0
DWIDTH 0 0
BBX 7 3 1 12
BITMAP
3E
78
F0
ENDCHAR
STARTCHAR uni0326
ENCODING 806
SWIDTH 0 0
DWIDTH 0 0
BBX 4 5 1 -6
BITMAP
F0
F0
F0
30
E0
ENDCHAR
STARTCHAR uni0400
ENCODING 1024
SWIDTH 795 0
DWIDTH 16 0
BBX 14 18 1 0
BITMAP
3E00
1F00
0700
0080
FFFC
FFFC
FFFC
F000
F000
FFF8
FFF8
FFF8
F000
F000
F000
FFFC
FFFC
FFFC
ENDCHAR
STARTCHAR uni0401
ENCODING 1025
SWIDTH 795 0
DWIDTH 16 0
BBX 14 18 1 0
BITMAP
1CE0
1CE0
1CE0
0000
FFFC
FFFC
FFFC
F000
F000
FFF8
FFF8
FFF8
F000
F000
F000
FFFC
FFFC
FFFC
ENDCHAR
STARTCHAR uni0402
ENCODING 1026
SWIDTH 1045 0
DWIDTH 21 0
BBX 20 14 0 0
BITMAP
FFFE00
FFFE00
FFFE00
03C000
03C000
03C700
03FFE0
03FFF0
03C0F0
03C0F0
03C0F0
03C7F0
03C7E0
03C7C0
ENDCHAR
STARTCHAR uni0403
ENCODING 1027
SWIDTH 739 0
DWIDTH 15 0
BBX 13 18 1 0
BITMAP
01F0
01E0
0380
0000
FFF8
FFF8
FFF8
F000
F000
F000
F000
F000
F000
F000
F000
F000
F000
F000
ENDCHAR
STARTCHAR uni0404
ENCODING 1028
SWIDTH 934 0
DWIDTH 19 0
BBX 17 14 1 0
BITMAP
07F800
1FFE00
7FFF00
780F80
F00780
FFE000
FFE000
FFE000
F00780
F00F80
780F00
7FFF00
1FFC00
07F000
ENDCHAR
STARTCHAR uni0405
ENCODING 1029
SWIDTH 836 0
DWIDTH 17 0
BBX 16 14 0 0
BITMAP
0FF0
3FFC
7FFE
781E
7801
7F00
3FFC
0FFE
001F
F00F
780F
7FFF
3FFE
0FF8
ENDCHAR
STARTCHAR uni0406
ENCODING 1030
SWIDTH 594 0
DWIDTH 12 0
BBX 12 14 0 0
BITMAP
FFF0
FFF0
FFF0
0F00
0F00
0F00
0F00
0F00
0F00
0F00
0F00
FFF0
FFF0
FFF0
ENDCHAR
STARTCHAR uni0407
ENCODING 1031
SWIDTH 594 0
DWIDTH 12 0
BBX 12 18 0 0
BITMAP
39C0
39C0
39C0
0000
FFF0
FFF0
FFF0
0F00
0F00
0F00
0F00
0F00
0F00
0F00
0F00
FFF0
FFF0
FFF0
ENDCHAR
STARTCHAR uni0408
ENCODING 1032
SWIDTH 807 0
DWIDTH 16 0
BBX 14 14 1 0
BITMAP
003C
003C
003C
003C
003C
003C
003C
E03C
E03C
E03C
F038
FFF8
7FF0
1FC0
ENDCHAR
STARTCHAR uni0409
ENCODING 1033
SWIDTH 1473 0
DWIDTH 29 0
BBX 29 14 0 0
BITMAP
0FFF8000
0FFF8000
0FFF8000
0F078000
0E078000
0E07FFC0
0E07FFF0
0E07FFF0
0E078078
1E078078
1C078078
FC07FFF0
FC07FFF0
F007FFE0
ENDCHAR
STARTCHAR uni040A
ENCODING 1034
SWIDTH 1463 0
DWIDTH 29 0
BBX 27 14 1 0
BITMAP
F00F0000
F00F0000
F00F0000
F00F0000
F00F0000
FFFFFF00
FFFFFFC0
FFFFFFE0
F00F01E0
F00F00E0
F00F00E0
F00FFFE0
F00FFFE0
F00FFF80
ENDCHAR
STARTCHAR uni040B
ENCODING 1035
SWIDTH 1045 0
DWIDTH 21 0
BBX 20 14 0 0
BITMAP
FFFE00
FFFE00
FFFE00
03C000
03C000
03C700
03FFE0
03FFF0
03C0F0
03C070
03C070
03C070
03C070
03C070
ENDCHAR
STARTCHAR uni040C
ENCODING 1036
SWIDTH 866 0
DWIDTH 17 0
BBX 16 18 1 0
BITMAP
00F8
01E0
03C0
0000
F03F
F07C
F0F0
F1E0
F3C0
FF80
FF00
FF80
F7C0
F3E0
F1F0
F0F8
F03C
F01F
ENDCHAR
STARTCHAR uni040D
ENCODING 1037
SWIDTH 923 0
DWIDTH 18 0
BBX 16 18 1 0
BITMAP
0F00
0780
03C0
0000
F01F
F03F
F03F
F07F
F0F7
F0E7
F1C7
F3C7
F387
F707
FE07
FE07
FC07
F807
ENDCHAR
STARTCHAR uni040E
ENCODING 1038
SWIDTH 821 0
DWIDTH 16 0
BBX 16 18 0 0
BITMAP
1E38
0FF8
07E0
0000
F00F
780F
3C1E
3C1C
1E3C
0E38
0F78
07F0
03F0
03E0
03C0
FFC0
FF80
FF00
ENDCHAR
STARTCHAR uni040F
ENCODING 1039
SWIDTH 901 0
DWIDTH 18 0
BBX 16 17 1 -3
BITMAP
F00F
F00F
F00F
F00F
F00F
F00F
F00F
F00F
F00F
F00F
F00F
FFFF
FFFF
FFFF
03C0
0180
0180
ENDCHAR
STARTCHAR uni0410
ENCODING 1040
SWIDTH 937 0
DWIDTH 19 0
BBX 19 14 0 0
BITMAP
01F000
03F000
03F800
07B800
071C00
0F1C00
0E1E00
1E0E00
1FFF00
3FFF00
3FFF80
780380
7803C0
F001E0
ENDCHAR
STARTCHAR uni0411
ENCODING 1041
SWIDTH 870 0
DWIDTH 17 0
BBX 16 14 1 0
BITMAP
FFFC
FFFC
FFFC
F000
F000
FFF0
FFFC
FFFE
F01E
F00F
F00F
FFFE
FFFE
FFFC
ENDCHAR
STARTCHAR uni0412
ENCODING 1042
SWIDTH 870 0
DWIDTH 17 0
BBX 16 14 1 0
BITMAP
FFF8
FFFE
FFFE
F01E
F01E
FFFE
FFF8
FFFE
F01E
F00F
F00F
FFFE
FFFE
FFFC
ENDCHAR
STARTCHAR uni0413
ENCODING 1043
SWIDTH 739 0
DWIDTH 15 0
BBX 13 14 1 0
BITMAP
FFF8
FFF8
FFF8
F000
F000
F000
F000
F000
F000
F000
F000
F000
F000
F000
ENDCHAR
STARTCHAR uni0414
ENCODING 1044
SWIDTH 1035 0
DWIDTH 21 0
BBX 20 17 0 -3
BITMAP
07FF80
07FF80
07FF80
0F0380
0F0380
0F0380
0F0380
0E0380
0E0380
0E0380
1E0380
FFFFF0
FFFFF0
FFFFF0
E00070
E00070
E00030
ENDCHAR
STARTCHAR uni0415
ENCODING 1045
SWIDTH 795 0
DWIDTH 16 0
BBX 14 14 1 0
BITMAP
FFFC
FFFC
FFFC
F000
F000
FFF8
FFF8
FFF8
F000
F000
F000
FFFC
FFFC
FFFC
ENDCHAR
STARTCHAR uni0416
ENCODING 1046
SWIDTH 1316 0
DWIDTH 26 0
BBX 26 14 0 0
BITMAP
7C1E0F80
3E1E1F00
0F1E3E00
079E7C00
03DEF800
01FFE000
00FFC000
01FFE000
03DEF000
079E7800
0F1E3C00
1F1E1E00
3E1E0F00
FC1E07C0
ENDCHAR
STARTCHAR uni0417
ENCODING 1047
SWIDTH 903 0
DWIDTH 18 0
BBX 17 14 0 0
BITMAP
0FFC00
3FFF00
7FFF80
780780
780780
01FF00
01FE00
01FF00
000780
F00780
780780
7FFF80
3FFF00
0FFC00
ENDCHAR
STARTCHAR uni0418
ENCODING 1048
SWIDTH 923 0
DWIDTH 18 0
BBX 16 14 1 0
BITMAP
F01F
F03F
F03F
F07F
F0F7
F0E7
F1C7
F3C7
F387
F707
FE07
FE07
FC07
F807
ENDCHAR
STARTCHAR uni0419
ENCODING 1049
SWIDTH 923 0
DWIDTH 18 0
BBX 16 18 1 0
BITMAP
0E38
0FF8
03E0
0000
F01F
F03F
F03F
F07F
F0F7
F0E7
F1C7
F3C7
F387
F707
FE07
FE07
FC07
F807
ENDCHAR
STARTCHAR uni041A
ENCODING 1050
SWIDTH 866 0
DWIDTH 17 0
BBX 16 14 1 0
BITMAP
F03F
F07C
F0F0
F1E0
F3C0
FF80
FF00
FF80
F7C0
F3E0
F1F0
F0F8
F03C
F01F
ENDCHAR
STARTCHAR uni041B
ENCODING 1051
SWIDTH 911 0
DWIDTH 18 0
BBX 17 14 0 0
BITMAP
0FFF80
0FFF80
0FFF80
0F0780
0F0780
0E0780
0E0780
0E0780
0E0780
1E0780
1E0780
FC0780
FC0780
F00780
ENDCHAR
STARTCHAR uni041C
ENCODING 1052
SWIDTH 1154 0
DWIDTH 23 0
BBX 21 14 1 0
BITMAP
FE03F8
FE03F8
FF07F8
F70778
F70778
F78F78
F38E78
F3DE78
F1DC78
F1FC78
F1FC78
F0F878
F0F878
F07078
ENDCHAR
STARTCHAR uni041D
ENCODING 1053
SWIDTH 901 0
DWIDTH 18 0
BBX 16 14 1 0
BITMAP
F00F
F00F
F00F
F00F
F00F
FFFF
FFFF
FFFF
F00F
F00F
F00F
F00F
F00F
F00F
ENDCHAR
STARTCHAR uni041E
ENCODING 1054
SWIDTH 951 0
DWIDTH 19 0
BBX 17 14 1 0
BITMAP
07F000
1FFC00
7FFF00
780F00
F00780
F00780
F00780
F00780
F00780
F00780
780F00
7FFF00
1FFC00
07F000
ENDCHAR
STARTCHAR uni041F
ENCODING 1055
SWIDTH 881 0
DWIDTH 18 0
BBX 15 14 1 0
BITMAP
FFFE
FFFE
FFFE
F00E
F00E
F00E
F00E
F00E
F00E
F00E
F00E
F00E
F00E
F00E
ENDCHAR
STARTCHAR uni0420
ENCODING 1056
SWIDTH 844 0
DWIDTH 17 0
BBX 15 14 1 0
BITMAP
FFF8
FFFE
FFFE
F01E
F00E
F01E
FFFE
FFFE
FFF8
F000
F000
F000
F000
F000
ENDCHAR
STARTCHAR uni0421
ENCODING 1057
SWIDTH 914 0
DWIDTH 18 0
BBX 17 14 1 0
BITMAP
07F000
1FFC00
7FFE00
781F00
F00F00
F00000
F00000
F00000
F00F80
F00F00
781F00
7FFE00
1FFC00
07F000
ENDCHAR
STARTCHAR uni0422
ENCODING 1058
SWIDTH 790 0
DWIDTH 16 0
BBX 15 14 0 0
BITMAP
FFFE
FFFE
FFFE
03C0
03C0
03C0
03C0
03C0
03C0
03C0
03C0
03C0
03C0
03C0
ENDCHAR
STARTCHAR uni0423
ENCODING 1059
SWIDTH 821 0
DWIDTH 16 0
BBX 16 14 0 0
BITMAP
F00F
780F
3C1E
3C1C
1E3C
0E38
0F78
07F0
03F0
03E0
03C0
FFC0
FF80
FF00
ENDCHAR
STARTCHAR uni0424
ENCODING 1060
SWIDTH 1068 0
DWIDTH 21 0
BBX 20 18 1 -2
BITMAP
00E000
00E000
0FFE00
3FFF80
7FFFC0
F0E1E0
F0E1E0
F0E0E0
F0E0F0
F0E0F0
F0E0E0
F0E1E0
F0E1E0
7FFFC0
3FFF80
0FFE00
00E000
00E000
ENDCHAR
STARTCHAR uni0425
ENCODING 1061
SWIDTH 894 0
DWIDTH 18 0
BBX 18 14 0 0
BITMAP
780F80
3C0F00
1E1E00
1E3C00
0F3C00
07F800
03F000
03F000
07F800
0F3C00
1E1E00
3C1F00
7C0F80
F807C0
ENDCHAR
STARTCHAR uni0426
ENCODING 1062
SWIDTH 1002 0
DWIDTH 20 0
BBX 19 17 1 -3
BITMAP
F00E00
F00E00
F00E00
F00E00
F00E00
F00E00
F00E00
F00E00
F00E00
F00E00
F00E00
FFFFE0
FFFFE0
FFFFE0
0000E0
0000E0
0000E0
ENDCHAR
STARTCHAR uni0427
ENCODING 1063
SWIDTH 843 0
DWIDTH 17 0
BBX 15 14 1 0
BITMAP
F01E
F01E
F01E
F01E
F01E
F01E
F83E
7FFE
7FFE
0F9E
001E
001E
001E
001E
ENDCHAR
STARTCHAR uni0428
ENCODING 1064
SWIDTH 1156 0
DWIDTH 23 0
BBX 21 14 1 0
BITMAP
F07078
F07078
F07078
F07078
F07078
F07078
F07078
F07078
F07078
F07078
F07078
FFFFF8
FFFFF8
FFFFF8
ENDCHAR
STARTCHAR uni0429
ENCODING 1065
SWIDTH 1275 0
DWIDTH 26 0
BBX 24 17 1 -3
BITMAP
F07078
F07078
F07078
F07078
F07078
F07078
F07078
F07078
F07078
F07078
F07078
FFFFFF
FFFFFF
FFFFFF
000007
000007
000007
ENDCHAR
STARTCHAR uni042A
ENCODING 1066
SWIDTH 1072 0
DWIDTH 21 0
BBX 21 14 0 0
BITMAP
FF8000
FF8000
FF8000
078000
078000
07FFC0
07FFF0
07FFF0
078078
078078
078078
07FFF0
07FFF0
07FFE0
ENDCHAR
STARTCHAR uni042B
ENCODING 1067
SWIDTH 1178 0
DWIDTH 24 0
BBX 21 14 1 0
BITMAP
F00038
F00038
F00038
F00038
F00038
FFF838
FFFE38
FFFE38
F00F38
F00F38
F00F38
FFFE38
FFFE38
FFFC38
ENDCHAR
STARTCHAR uni042C
ENCODING 1068
SWIDTH 870 0
DWIDTH 17 0
BBX 16 14 1 0
BITMAP
F000
F000
F000
F000
F000
FFF8
FFFE
FFFE
F00F
F00F
F00F
FFFE
FFFE
FFFC
ENDCHAR
STARTCHAR uni042D
ENCODING 1069
SWIDTH 934 0
DWIDTH 19 0
BBX 17 14 1 0
BITMAP
0FF000
3FFC00
7FFE00
F80F00
F00780
03FF80
03FF80
03FF80
F00780
F00F80
F81F00
7FFE00
3FFC00
0FF000
ENDCHAR
STARTCHAR uni042E
ENCODING 1070
SWIDTH 1292 0
DWIDTH 26 0
BBX 24 14 1 0
BITMAP
F00FE0
F03FF8
F0FFFC
F0F01E
F1E00F
FFE00F
FFE00F
FFE00F
F1E00F
F0E00F
F0F01E
F07FFC
F03FF8
F00FE0
ENDCHAR
STARTCHAR uni042F
ENCODING 1071
SWIDTH 875 0
DWIDTH 18 0
BBX 15 14 1 0
BITMAP
3FFE
FFFE
FFFE
F00E
F00E
F00E
FFFE
3FFE
7FFE
F00E
F00E
F00E
F00E
F00E
ENDCHAR
STARTCHAR uni0430
ENCODING 1072
SWIDTH 719 0
DWIDTH 14 0
BBX 13 11 1 0
BITMAP
1FC0
7FF0
7FF0
F070
07F0
7FF0
F070
E0F0
FFF0
FF70
7E78
ENDCHAR
STARTCHAR uni0431
ENCODING 1073
SWIDTH 755 0
DWIDTH 15 0
BBX 13 15 1 0
BITMAP
0038
0FF8
3FF0
7F80
E000
EFC0
FFF0
FFF8
F078
E038
E038
F078
7FF8
7FF0
1FC0
ENDCHAR
STARTCHAR uni0432
ENCODING 1074
SWIDTH 771 0
DWIDTH 15 0
BBX 14 11 1 0
BITMAP
FFF0
FFF8
FFF8
F038
F078
FFF0
FFF8
FFFC
FFFC
FFF8
FFF0
ENDCHAR
STARTCHAR uni0433
ENCODING 1075
SWIDTH 569 0
DWIDTH 11 0
BBX 10 11 1 0
BITMAP
FFC0
FFC0
FFC0
F000
F000
F000
F000
F000
F000
F000
F000
ENDCHAR
STARTCHAR uni0434
ENCODING 1076
SWIDTH 853 0
DWIDTH 17 0
BBX 17 14 0 -3
BITMAP
0FFC00
0FFC00
1FFC00
1E1C00
1C1C00
1C1C00
1C1C00
1C1C00
FFFF80
FFFF80
FFFF80
E00380
E00380
E00380
ENDCHAR
STARTCHAR uni0435
ENCODING 1077
SWIDTH 748 0
DWIDTH 15 0
BBX 13 11 1 0
BITMAP
1FC0
7FF0
F8F0
F078
FFF8
FFF8
FFF8
F000
F8F8
7FF0
1FC0
ENDCHAR
STARTCHAR uni0436
ENCODING 1078
SWIDTH 1051 0
DWIDTH 21 0
BBX 21 11 0 0
BITMAP
F870F8
3C71E0
1E73C0
0F7780
07FF00
03FE00
07FF00
0F7780
1E73C0
3C71E0
F870F8
ENDCHAR
STARTCHAR uni0437
ENCODING 1079
SWIDTH 741 0
DWIDTH 15 0
BBX 13 11 1 0
BITMAP
1FE0
7FF0
FFF8
E078
07F0
07E0
07F8
F078
FFF8
7FF0
1FE0
ENDCHAR
STARTCHAR uni0438
ENCODING 1080
SWIDTH 823 0
DWIDTH 16 0
BBX 14 11 1 0
BITMAP
F07C
F0FC
F1FC
F1DC
F39C
F39C
F71C
FF1C
FE1C
FC1C
FC1C
ENDCHAR
STARTCHAR uni0439
ENCODING 1081
SWIDTH 823 0
DWIDTH 16 0
BBX 14 15 1 0
BITMAP
3C70
1FF0
0FE0
0300
F07C
F0FC
F1FC
F1DC
F39C
F39C
F71C
FF1C
FE1C
FC1C
FC1C
ENDCHAR
STARTCHAR uni043A
ENCODING 1082
SWIDTH 689 0
DWIDTH 14 0
BBX 13 11 1 0
BITMAP
F0F0
F1E0
F3C0
F780
FE00
FE00
FF00
F780
F3C0
F1E0
F0F8
ENDCHAR
STARTCHAR uni043B
ENCODING 1083
SWIDTH 748 0
DWIDTH 15 0
BBX 14 11 0 0
BITMAP
1FFC
1FFC
1FFC
1C3C
1C3C
1C3C
1C3C
3C3C
F83C
F83C
F03C
ENDCHAR
STARTCHAR uni043C
ENCODING 1084
SWIDTH 995 0
DWIDTH 20 0
BBX 18 11 1 0
BITMAP
FE1FC0
FE1FC0
FE1FC0
EF3BC0
EF3BC0
E73BC0
E73BC0
E7F3C0
E3F3C0
E3F3C0
E3E3C0
ENDCHAR
STARTCHAR uni043D
ENCODING 1085
SWIDTH 738 0
DWIDTH 15 0
BBX 13 11 1 0
BITMAP
F078
F078
F078
F078
FFF8
FFF8
FFF8
F078
F078
F078
F078
ENDCHAR
STARTCHAR uni043E
ENCODING 1086
SWIDTH 755 0
DWIDTH 15 0
BBX 13 11 1 0
BITMAP
1FC0
7FF0
FFF8
F078
E038
E038
E038
F078
FFF8
7FF0
1FC0
ENDCHAR
STARTCHAR uni043F
ENCODING 1087
SWIDTH 738 0
DWIDTH 15 0
BBX 13 11 1 0
BITMAP
FFF8
FFF8
FFF8
F078
F078
F078
F078
F078
F078
F078
F078
ENDCHAR
STARTCHAR uni0440
ENCODING 1088
SWIDTH 766 0
DWIDTH 15 0
BBX 14 15 1 -4
BITMAP
F7E0
FFF0
FFF8
F078
F03C
E03C
F03C
F078
FFF8
FFF0
F7E0
F000
F000
F000
F000
ENDCHAR
STARTCHAR uni0441
ENCODING 1089
SWIDTH 747 0
DWIDTH 15 0
BBX 13 11 1 0
BITMAP
1FC0
7FF0
FFF8
F078
E000
E000
E000
F078
FFF8
7FF0
1FC0
ENDCHAR
STARTCHAR uni0442
ENCODING 1090
SWIDTH 711 0
DWIDTH 14 0
BBX 13 11 1 0
BITMAP
FFF8
FFF8
FFF8
0F00
0F00
0F00
0F00
0F00
0F00
0F00
0F00
ENDCHAR
STARTCHAR uni0443
ENCODING 1091
SWIDTH 722 0
DWIDTH 14 0
BBX 14 15 0 -4
BITMAP
F03C
783C
7878
3878
3C70
1CF0
1EE0
0FE0
0FC0
07C0
0780
0780
7F00
7F00
7C00
ENDCHAR
STARTCHAR uni0444
ENCODING 1092
SWIDTH 1205 0
DWIDTH 24 0
BBX 22 18 1 -4
BITMAP
007800
007800
007800
1F7BE0
7FFFF8
FFFFFC
F0783C
E0781C
E0781C
E0781C
F0783C
FFFFFC
7FFFF8
1F7BE0
007800
007800
007800
007800
ENDCHAR
STARTCHAR uni0445
ENCODING 1093
SWIDTH 759 0
DWIDTH 15 0
BBX 15 11 0 0
BITMAP
783C
3C78
1C78
1EF0
0FE0
07C0
07E0
0FF0
1EF8
3C7C
F83E
ENDCHAR
STARTCHAR uni0446
ENCODING 1094
SWIDTH 803 0
DWIDTH 16 0
BBX 15 14 1 -3
BITMAP
F070
F070
F070
F070
F070
F070
F070
F070
FFFE
FFFE
FFFE
000E
000E
000E
ENDCHAR
STARTCHAR uni0447
ENCODING 1095
SWIDTH 708 0
DWIDTH 14 0
BBX 12 11 1 0
BITMAP
E070
E070
E070
E070
F070
FFF0
7FF0
3E70
0070
0070
0070
ENDCHAR
STARTCHAR uni0448
ENCODING 1096
SWIDTH 989 0
DWIDTH 20 0
BBX 18 11 1 0
BITMAP
F1E3C0
F1E3C0
F1E3C0
F1E3C0
F1E3C0
F1E3C0
F1E3C0
F1E3C0
FFFFC0
FFFFC0
FFFFC0
ENDCHAR
STARTCHAR uni0449
ENCODING 1097
SWIDTH 1084 0
DWIDTH 22 0
BBX 21 14 1 -3
BITMAP
F1E3C0
F1E3C0
F1E3C0
F1E3C0
F1E3C0
F1E3C0
F1E3C0
F1E3C0
FFFFF8
FFFFF8
FFFFF8
000038
000038
000038
ENDCHAR
STARTCHAR uni044A
ENCODING 1098
SWIDTH 858 0
DWIDTH 17 0
BBX 16 11 1 0
BITMAP
FC00
FC00
FC00
1FF8
1FFE
1FFE
1C0E
1C0F
1FFE
1FFE
1FF8
ENDCHAR
STARTCHAR uni044B
ENCODING 1099
SWIDTH 1005 0
DWIDTH 20 0
BBX 18 11 1 0
BITMAP
F001C0
F001C0
F001C0
FFE1C0
FFF1C0
FFF1C0
F079C0
F079C0
FFF1C0
FFF1C0
FFE1C0
ENDCHAR
STARTCHAR uni044C
ENCODING 1100
SWIDTH 718 0
DWIDTH 14 0
BBX 13 11 1 0
BITMAP
F000
F000
F000
FFE0
FFF0
FFF0
F078
F078
FFF0
FFF0
FFE0
ENDCHAR
STARTCHAR uni044D
ENCODING 1101
SWIDTH 784 0
DWIDTH 16 0
BBX 14 11 1 0
BITMAP
1FC0
7FF0
FFF8
F03C
07FC
07FC
07FC
F03C
FFF8
7FF0
1FC0
ENDCHAR
STARTCHAR uni044E
ENCODING 1102
SWIDTH 1075 0
DWIDTH 22 0
BBX 20 11 1 0
BITMAP
F03F00
F0FFC0
F1FFE0
F3C0F0
FFC0F0
FFC0F0
FFC0F0
F3C0F0
F1FFE0
F0FFC0
F03F00
ENDCHAR
STARTCHAR uni044F
ENCODING 1103
SWIDTH 742 0
DWIDTH 15 0
BBX 13 11 1 0
BITMAP
3FF8
FFF8
FFF8
F078
F078
FFF8
3FF8
7FF8
F078
F078
F078
ENDCHAR
STARTCHAR uni0450
ENCODING 1104
SWIDTH 748 0
DWIDTH 15 0
BBX 13 15 1 0
BITMAP
3C00
1E00
0F00
0000
1FC0
7FF0
F8F0
F078
FFF8
FFF8
FFF8
F000
F8F8
7FF0
1FC0
ENDCHAR
STARTCHAR uni0451
ENCODING 1105
SWIDTH 748 0
DWIDTH 15 0
BBX 13 15 1 0
BITMAP
38E0
38E0
38E0
0000
1FC0
7FF0
F8F0
F078
FFF8
FFF8
FFF8
F000
F8F8
7FF0
1FC0
ENDCHAR
STARTCHAR uni0452
ENCODING 1106
SWIDTH 748 0
DWIDTH 15 0
BBX 14 18 0 -4
BITMAP
7800
7800
FF00
FF00
FF00
7800
7BF0
7FF8
7FFC
783C
783C
783C
783C
783C
003C
00FC
00FC
00F8
ENDCHAR
STARTCHAR uni0453
ENCODING 1107
SWIDTH 569 0
DWIDTH 11 0
BBX 10 15 1 0
BITMAP
07C0
0780
0E00
0000
FFC0
FFC0
FFC0
F000
F000
F000
F000
F000
F000
F000
F000
ENDCHAR
STARTCHAR uni0454
ENCODING 1108
SWIDTH 784 0
DWIDTH 16 0
BBX 14 11 1 0
BITMAP
1FE0
7FF8
FFFC
F03C
FF80
FF80
FF80
F03C
FFF8
7FF8
1FE0
ENDCHAR
STARTCHAR uni0455
ENCODING 1109
SWIDTH 706 0
DWIDTH 14 0
BBX 13 11 0 0
BITMAP
1FC0
7FF0
7878
7078
7FC0
3FF8
01F8
F038
7878
7FF8
1FE0
ENDCHAR
STARTCHAR uni0456
ENCODING 1110
SWIDTH 287 0
DWIDTH 6 0
BBX 4 15 1 0
BITMAP
F0
F0
F0
00
F0
F0
F0
F0
F0
F0
F0
F0
F0
F0
F0
ENDCHAR
STARTCHAR uni0457
ENCODING 1111
SWIDTH 287 0
DWIDTH 6 0
BBX 8 15 -1 0
BITMAP
E7
E7
E7
00
3C
3C
3C
3C
3C
3C
3C
3C
3C
3C
3C
ENDCHAR
STARTCHAR uni0458
ENCODING 1112
SWIDTH 287 0
DWIDTH 6 0
BBX 6 19 -1 -4
BITMAP
3C
3C
3C
00
3C
3C
3C
3C
3C
3C
3C
3C
3C
3C
3C
3C
FC
F8
F8
ENDCHAR
STARTCHAR uni0459
ENCODING 1113
SWIDTH 1179 0
DWIDTH 24 0
BBX 23 11 0 0
BITMAP
1FFC00
1FFC00
1FFC00
1C3FF8
1C3FFC
1C3FFE
1C3C1E
3C3C1E
F83FFE
F83FFC
F03FF8
ENDCHAR
STARTCHAR uni045A
ENCODING 1114
SWIDTH 1179 0
DWIDTH 24 0
BBX 22 11 1 0
BITMAP
F07800
F07800
F07800
F07800
FFFFF0
FFFFF8
FFFFFC
F0783C
F07FFC
F07FF8
F07FF0
ENDCHAR
STARTCHAR uni045B
ENCODING 1115
SWIDTH 748 0
DWIDTH 15 0
BBX 14 14 0 0
BITMAP
7800
7800
FF00
FF00
FF00
7800
7BF0
7FF8
7FFC
783C
783C
783C
783C
783C
ENDCHAR
STARTCHAR uni045C
ENCODING 1116
SWIDTH 689 0
DWIDTH 14 0
BBX 13 15 1 0
BITMAP
03E0
0780
0F00
0000
F0F0
F1E0
F3C0
F780
FE00
FE00
FF00
F780
F3C0
F1E0
F0F8
ENDCHAR
STARTCHAR uni045D
ENCODING 1117
SWIDTH 823 0
DWIDTH 16 0
BBX 14 15 1 0
BITMAP
3E00
0F00
0780
0000
F07C
F0FC
F1FC
F1DC
F39C
F39C
F71C
FF1C
FE1C
FC1C
FC1C
ENDCHAR
STARTCHAR uni045E
ENCODING 1118
SWIDTH 722 0
DWIDTH 14 0
BBX 14 19 0 -4
BITMAP
3C70
1FF0
0FE0
0300
F03C
783C
7878
3878
3C70
1CF0
1EE0
0FE0
0FC0
07C0
0780
0780
7F00
7F00
7C00
ENDCHAR
STARTCHAR uni045F
ENCODING 1119
SWIDTH 738 0
DWIDTH 15 0
BBX 13 14 1 -3
BITMAP
F078
F078
F078
F078
F078
F078
F078
F078
FFF8
FFF8
FFF8
0700
0700
0700
ENDCHAR
STARTCHAR uni0490
ENCODING 1168
SWIDTH 739 0
DWIDTH 15 0
BBX 13 17 1 0
BITMAP
0018
0038
0038
FFF8
FFF8
FFF8
F000
F000
F000
F000
F000
F000
F000
F000
F000
F000
F000
ENDCHAR
STARTCHAR uni0491
ENCODING 1169
SWIDTH 569 0
DWIDTH 11 0
BBX 10 14 1 0
BITMAP
01C0
01C0
01C0
FFC0
FFC0
FFC0
F000
F000
F000
F000
F000
F000
F000
F000
ENDCHAR
STARTCHAR uni0492
ENCODING 1170
SWIDTH 739 0
DWIDTH 15 0
BBX 14 14 0 0
BITMAP
7FFC
7FFC
7FFC
7800
7800
7800
FF80
FF80
FF80
7800
7800
7800
7800
7800
ENDCHAR
STARTCHAR uni0493
ENCODING 1171
SWIDTH 569 0
DWIDTH 11 0
BBX 11 11 0 0
BITMAP
7FE0
7FE0
7FE0
7800
7800
FF00
FF00
FF00
7800
7800
7800
ENDCHAR
STARTCHAR uni0496
ENCODING 1174
SWIDTH 1325 0
DWIDTH 27 0
BBX 26 17 0 -3
BITMAP
7C1E0F80
3E1E1F00
0F1E3E00
079E7C00
03DEF000
01FFE000
00FFC000
01FFE000
03DEF000
079E7800
0F1E3C00
1F1E1FC0
3E1E0FC0
FC1E07C0
000001C0
000001C0
000001C0
ENDCHAR
STARTCHAR uni0497
ENCODING 1175
SWIDTH 1048 0
DWIDTH 21 0
BBX 21 14 0 -3
BITMAP
F870F8
3C71E0
1E73C0
0F7780
07FF00
03FE00
07FF00
0F77C0
1E73F8
3C71F8
F870F8
000038
000038
000038
ENDCHAR
STARTCHAR uni049A
ENCODING 1178
SWIDTH 881 0
DWIDTH 18 0
BBX 16 17 1 -3
BITMAP
F03F
F07C
F0F0
F1E0
F7C0
FF80
FF00
FF80
F7C0
F3E0
F1F0
F0FF
F03F
F01F
0007
0007
0003
ENDCHAR
STARTCHAR uni049B
ENCODING 1179
SWIDTH 688 0
DWIDTH 14 0
BBX 13 14 1 -3
BITMAP
F0F0
F1E0
F3C0
F780
FE00
FE00
FF00
F780
F3F8
F1F8
F0F8
0038
0038
0038
ENDCHAR
STARTCHAR uni04AE
ENCODING 1198
SWIDTH 865 0
DWIDTH 17 0
BBX 17 14 0 0
BITMAP
F80780
780F00
3C1E00
1E1E00
1E3C00
0F7800
07F000
03F000
03E000
01C000
01C000
01C000
01C000
01C000
ENDCHAR
STARTCHAR uni04AF
ENCODING 1199
SWIDTH 722 0
DWIDTH 14 0
BBX 14 15 0 -4
BITMAP
F03C
783C
7878
3878
3C70
1CF0
1EE0
0FE0
0FC0
07C0
0780
0380
0380
0380
0380
ENDCHAR
STARTCHAR uni04B0
ENCODING 1200
SWIDTH 865 0
DWIDTH 17 0
BBX 17 14 0 0
BITMAP
F80780
780F00
3C1E00
1E1E00
1E3C00
0F7800
07F000
03F000
1FFE00
1FFE00
01C000
01C000
01C000
01C000
ENDCHAR
STARTCHAR uni04B1
ENCODING 1201
SWIDTH 722 0
DWIDTH 14 0
BBX 14 15 0 -4
BITMAP
F03C
783C
7878
3878
3C70
1CF0
1EE0
0FE0
0FC0
07C0
1FF0
1FF0
1FF0
0380
0380
ENDCHAR
STARTCHAR uni04BA
ENCODING 1210
SWIDTH 795 0
DWIDTH 16 0
BBX 14 14 1 0
BITMAP
F000
F000
F000
F000
F1C0
FFF8
FFFC
F03C
F03C
F01C
F01C
F01C
F01C
F01C
ENDCHAR
STARTCHAR uni04BB
ENCODING 1211
SWIDTH 748 0
DWIDTH 15 0
BBX 13 14 1 0
BITMAP
F000
F000
F000
F7E0
FFF0
FFF8
F078
F078
F078
F078
F078
F078
F078
F078
ENDCHAR
STARTCHAR uni04C9
ENCODING 1225
SWIDTH 1020 0
DWIDTH 20 0
BBX 19 17 1 -3
BITMAP
F00F00
F00F00
F00F00
F00F00
F00F00
FFFF00
FFFF00
FFFF00
F00F00
F00F00
F00F00
F00FE0
F00FE0
F00FE0
0000E0
0000E0
0000E0
ENDCHAR
STARTCHAR uni04CA
ENCODING 1226
SWIDTH 833 0
DWIDTH 17 0
BBX 16 14 1 -3
BITMAP
F078
F078
F078
F078
FFF8
FFF8
FFF8
F078
F07F
F07F
F07F
0007
0007
0007
ENDCHAR
STARTCHAR uni04D8
ENCODING 1240
SWIDTH 951 0
DWIDTH 19 0
BBX 17 14 1 0
BITMAP
0FF000
3FFE00
7FFF00
F00F00
000780
FFFF80
FFFF80
FFFF80
F00780
F00780
780F00
7FFF00
1FFE00
07F000
ENDCHAR
STARTCHAR uni04D9
ENCODING 1241
SWIDTH 748 0
DWIDTH 15 0
BBX 13 11 1 0
BITMAP
1FC0
7FF0
FFF0
F078
FFF8
FFF8
FFF8
F078
7FF0
7FF0
1FC0
ENDCHAR
STARTCHAR uni04E8
ENCODING 1256
SWIDTH 951 0
DWIDTH 19 0
BBX 17 14 1 0
BITMAP
07F000
1FFC00
7FFF00
780F00
F00780
FFFF80
FFFF80
FFFF80
F00780
F00780
780F00
7FFF00
1FFC00
07F000
ENDCHAR
STARTCHAR uni04E9
ENCODING 1257
SWIDTH 755 0
DWIDTH 15 0
BBX 13 11 1 0
BITMAP
1FC0
7FF0
FFF8
F078
FFF8
FFF8
FFF8
F078
FFF8
7FF0
1FC0
ENDCHAR
STARTCHAR Wgrave
ENCODING 7808
SWIDTH 1234 0
DWIDTH 25 0
BBX 25 18 0 0
BITMAP
01E00000
00F00000
00380000
00000000
F03E0780
703E0F00
783E0F00
787E0E00
387F0E00
38771E00
3CE71C00
1CE79C00
1CE3BC00
1EE3B800
0FC3F800
0FC1F800
0FC1F000
0F81F000
ENDCHAR
STARTCHAR wgrave
ENCODING 7809
SWIDTH 1126 0
DWIDTH 23 0
BBX 22 15 0 0
BITMAP
03E000
00F000
007800
000000
F0783C
707C3C
78FC38
38FE78
38EE78
3DEE70
1DCFF0
1FC7F0
1F87E0
0F83E0
0F83C0
ENDCHAR
STARTCHAR Wacute
ENCODING 7810
SWIDTH 1234 0
DWIDTH 25 0
BBX 25 18 0 0
BITMAP
000F8000
001E0000
003C0000
00000000
F03E0780
703E0F00
783E0F00
787E0E00
387F0E00
38771E00
3CE71C00
1CE79C00
1CE3BC00
1EE3B800
0FC3F800
0FC1F800
0FC1F000
0F81F000
ENDCHAR
STARTCHAR wacute
ENCODING 7811
SWIDTH 1126 0
DWIDTH 23 0
BBX 22 15 0 0
BITMAP
001F00
001E00
003800
000000
F0783C
707C3C
78FC38
38FE78
38EE78
3DEE70
1DCFF0
1FC7F0
1F87E0
0F83E0
0F83C0
ENDCHAR
STARTCHAR Wdieresis
ENCODING 7812
SWIDTH 1234 0
DWIDTH 25 0
BBX 25 18 0 0
BITMAP
01E70000
01E70000
01E70000
00000000
F03E0780
703E0F00
783E0F00
787E0E00
387F0E00
38771E00
3CE71C00
1CE79C00
1CE3BC00
1EE3B800
0FC3F800
0FC1F800
0FC1F000
0F81F000
ENDCHAR
STARTCHAR wdieresis
ENCODING 7813
SWIDTH 1126 0
DWIDTH 23 0
BBX 22 15 0 0
BITMAP
01CE00
01CE00
01CE00
000000
F0783C
707C3C
78FC38
38FE78
38EE78
3DEE70
1DCFF0
1FC7F0
1F87E0
0F83E0
0F83C0
ENDCHAR
STARTCHAR Ygrave
ENCODING 7922
SWIDTH 865 0
DWIDTH 17 0
BBX 17 18 0 0
BITMAP
0F8000
078000
01C000
000000
F80780
780F00
3C1E00
1E1E00
1E3C00
0F7800
07F000
03F000
03E000
01C000
01C000
01C000
01C000
01C000
ENDCHAR
STARTCHAR ygrave
ENCODING 7923
SWIDTH 722 0
DWIDTH 14 0
BBX 14 19 0 -4
BITMAP
3E00
0F00
0780
0000
F03C
783C
7878
3878
3C70
1CF0
1EE0
0FE0
0FC0
07C0
0780
0780
7F00
7F00
7C00
ENDCHAR
STARTCHAR uni2007
ENCODING 8199
SWIDTH 309 0
DWIDTH 6 0
BBX 1 1 0 0
BITMAP
00
ENDCHAR
STARTCHAR uni2008
ENCODING 8200
SWIDTH 258 0
DWIDTH 5 0
BBX 1 1 0 0
BITMAP
00
ENDCHAR
STARTCHAR uni200B
ENCODING 8203
SWIDTH 0 0
DWIDTH 0 0
BBX 1 1 0 0
BITMAP
00
ENDCHAR
STARTCHAR endash
ENCODING 8211
SWIDTH 668 0
DWIDTH 13 0
BBX 12 3 1 5
BITMAP
FFF0
FFF0
FFF0
ENDCHAR
STARTCHAR emdash
ENCODING 8212
SWIDTH 884 0
DWIDTH 18 0
BBX 16 3 1 5
BITMAP
FFFF
FFFF
FFFF
ENDCHAR
STARTCHAR quoteleft
ENCODING 8216
SWIDTH 257 0
DWIDTH 5 0
BBX 3 6 1 8
BITMAP
60
C0
C0
E0
E0
E0
ENDCHAR
STARTCHAR quoteright
ENCODING 8217
SWIDTH 256 0
DWIDTH 5 0
BBX 3 6 1 8
BITMAP
E0
E0
E0
60
60
C0
ENDCHAR
STARTCHAR quotesinglbase
ENCODING 8218
SWIDTH 256 0
DWIDTH 5 0
BBX 3 7 1 -4
BITMAP
E0
E0
E0
60
60
60
C0
ENDCHAR
STARTCHAR quotedblleft
ENCODING 8220
SWIDTH 520 0
DWIDTH 10 0
BBX 9 6 1 8
BITMAP
6380
C700
C600
E780
E780
E780
ENDCHAR
STARTCHAR quotedblright
ENCODING 8221
SWIDTH 519 0
DWIDTH 10 0
BBX 9 6 1 8
BITMAP
E780
E780
E780
6380
6300
C600
ENDCHAR
STARTCHAR quotedblbase
ENCODING 8222
SWIDTH 519 0
DWIDTH 10 0
BBX 9 7 1 -4
BITMAP
E780
E780
E780
6180
6300
6300
C600
ENDCHAR
STARTCHAR dagger
ENCODING 8224
SWIDTH 667 0
DWIDTH 13 0
BBX 12 18 1 -4
BITMAP
0E00
0E00
0E00
0E00
FFF0
FFF0
FFF0
0E00
0E00
0E00
0E00
0E00
0E00
0E00
0E00
0E00
0E00
0E00
ENDCHAR
STARTCHAR daggerdbl
ENCODING 8225
SWIDTH 667 0
DWIDTH 13 0
BBX 12 18 1 -4
BITMAP
0E00
0E00
0E00
0E00
FFF0
FFF0
FFF0
0E00
0E00
0E00
0E00
FFF0
FFF0
FFF0
0E00
0E00
0E00
0E00
ENDCHAR
STARTCHAR bullet
ENCODING 8226
SWIDTH 456 0
DWIDTH 9 0
BBX 7 7 1 4
BITMAP
3C
FE
FE
FE
FE
FE
3C
ENDCHAR
STARTCHAR ellipsis
ENCODING 8230
SWIDTH 984 0
DWIDTH 20 0
BBX 17 3 1 0
BITMAP
F1E780
F1E780
F1E780
ENDCHAR
STARTCHAR perthousand
ENCODING 8240
SWIDTH 1579 0
DWIDTH 32 0
BBX 30 14 1 0
BITMAP
7C070000
FF0E0000
E70C0000
C3180000
C3380000
E7300000
FF67C1F0
3CEFF3F8
00CE731C
01CC371C
018C371C
030E731C
070FF3F8
0E07C1F0
ENDCHAR
STARTCHAR guilsinglleft
ENCODING 8249
SWIDTH 278 0
DWIDTH 6 0
BBX 4 9 1 1
BITMAP
10
70
F0
E0
80
E0
F0
70
10
ENDCHAR
STARTCHAR guilsinglright
ENCODING 8250
SWIDTH 275 0
DWIDTH 6 0
BBX 4 9 1 1
BITMAP
80
C0
E0
70
30
70
F0
C0
80
ENDCHAR
STARTCHAR uni2070
ENCODING 8304
SWIDTH 540 0
DWIDTH 11 0
BBX 9 8 1 6
BITMAP
3E00
FF80
C380
C180
C180
C380
FF80
3E00
ENDCHAR
STARTCHAR uni2074
ENCODING 8308
SWIDTH 483 0
DWIDTH 10 0
BBX 9 8 0 6
BITMAP
0F00
1F00
3300
6300
FF80
FF80
0300
0300
ENDCHAR
STARTCHAR uni2075
ENCODING 8309
SWIDTH 494 0
DWIDTH 10 0
BBX 9 8 0 6
BITMAP
7F80
7F80
7F00
7F80
0180
E180
7F80
3F00
ENDCHAR
STARTCHAR uni2076
ENCODING 8310
SWIDTH 510 0
DWIDTH 10 0
BBX 9 8 1 6
BITMAP
7E00
FF00
DE80
FF00
C380
C380
FF00
7E00
ENDCHAR
STARTCHAR uni2077
ENCODING 8311
SWIDTH 458 0
DWIDTH 9 0
BBX 9 8 0 6
BITMAP
FF80
FF80
0300
0700
0E00
0E00
1C00
3800
ENDCHAR
STARTCHAR uni2078
ENCODING 8312
SWIDTH 518 0
DWIDTH 10 0
BBX 9 8 1 6
BITMAP
7F00
FF80
C380
FF00
FF80
C380
FF80
7F00
ENDCHAR
STARTCHAR uni2079
ENCODING 8313
SWIDTH 498 0
DWIDTH 10 0
BBX 9 8 0 6
BITMAP
3F00
7F80
E180
FF80
7F80
E180
7F80
3E00
ENDCHAR
STARTCHAR franc
ENCODING 8355
SWIDTH 913 0
DWIDTH 18 0
BBX 17 14 1 0
BITMAP
FFFC00
FFFC00
FFFC00
F00000
F00000
FFFC00
FFFF00
FFFF80
F38780
F3FF00
F3FF00
F3FE00
F38700
F38780
ENDCHAR
STARTCHAR Euro
ENCODING 8364
SWIDTH 827 0
DWIDTH 17 0
BBX 15 14 1 0
BITMAP
03F8
0FFE
1FFC
3C04
3C00
FFF0
7800
7800
FFC0
3C00
3C04
1FFC
0FFC
03F8
ENDCHAR
STARTCHAR uni2116
ENCODING 8470
SWIDTH 1449 0
DWIDTH 29 0
BBX 27 14 1 0
BITMAP
F8070F80
FC073FC0
FE0738E0
FF0730E0
F70738C0
F7871FC0
F3C70F80
F1C70000
F0E70000
F0F70000
F07F0000
F03F3FE0
F03F3FE0
F01F3FE0
ENDCHAR
STARTCHAR trademark
ENCODING 8482
SWIDTH 978 0
DWIDTH 20 0
BBX 18 7 1 8
BITMAP
FEF1C0
FEF3C0
10F3C0
10DAC0
10DEC0
10CEC0
10CCC0
ENDCHAR
STARTCHAR uni2126
ENCODING 8486
SWIDTH 971 0
DWIDTH 19 0
BBX 18 15 1 0
BITMAP
07F000
1FFC00
3FFF00
7C1F80
F80780
F00780
F00380
F00380
F00380
F00780
780F80
3C1F00
0F3C00
FF3FC0
FF3FC0
ENDCHAR
STARTCHAR partialdiff
ENCODING 8706
SWIDTH 766 0
DWIDTH 15 0
BBX 13 15 1 0
BITMAP
1F80
7FE0
7FF0
40F8
0078
1FB8
7FF8
7FF8
F078
F038
E078
F078
FFF0
7FE0
1F80
ENDCHAR
STARTCHAR emptyset
ENCODING 8709
SWIDTH 872 0
DWIDTH 17 0
BBX 15 15 1 0
BITMAP
010C
0FF8
1838
303C
606C
60C6
40C6
C186
C306
6606
6604
7C0C
3818
3FF0
77C0
ENDCHAR
STARTCHAR uni2206
ENCODING 8710
SWIDTH 934 0
DWIDTH 19 0
BBX 18 15 0 0
BITMAP
01F000
01F000
03F800
03B800
07BC00
073C00
0F1C00
0E1E00
1E0E00
1C0F00
3C0700
3C0780
7FFF80
7FFFC0
FFFFC0
ENDCHAR
STARTCHAR product
ENCODING 8719
SWIDTH 901 0
DWIDTH 18 0
BBX 16 17 1 -3
BITMAP
FFFF
FFFF
FFFF
F00F
F00F
F00F
F00F
F00F
F00F
F00F
F00F
F00F
F00F
F00F
F00F
F00F
F00F
ENDCHAR
STARTCHAR summation
ENCODING 8721
SWIDTH 809 0
DWIDTH 16 0
BBX 14 17 1 -3
BITMAP
7FFC
7FFC
7FFC
3C00
1E00
0F00
0780
03C0
01E0
03C0
0780
1F00
3E00
7C00
FFFC
FFFC
FFFC
ENDCHAR
STARTCHAR minus
ENCODING 8722
SWIDTH 674 0
DWIDTH 13 0
BBX 11 2 1 5
BITMAP
FFE0
FFE0
ENDCHAR
STARTCHAR uni2219
ENCODING 8729
SWIDTH 345 0
DWIDTH 7 0
BBX 4 4 1 4
BITMAP
70
F0
70
70
ENDCHAR
STARTCHAR radical
ENCODING 8730
SWIDTH 688 0
DWIDTH 14 0
BBX 12 17 1 -3
BITMAP
0030
0030
0020
0060
0060
0040
00C0
00C0
2080
F180
B180
3100
1B00
1B00
1A00
0E00
0E00
ENDCHAR
STARTCHAR infinity
ENCODING 8734
SWIDTH 874 0
DWIDTH 17 0
BBX 15 8 1 2
BITMAP
3C38
7EFC
67CE
E386
E386
63C6
7EFC
3C78
ENDCHAR
STARTCHAR integral
ENCODING 8747
SWIDTH 515 0
DWIDTH 10 0
BBX 10 19 0 -4
BITMAP
07C0
0FC0
0E00
1E00
1E00
1E00
1E00
1E00
1E00
1E00
1E00
1E00
1E00
1E00
1E00
1E00
1E00
FC00
F800
ENDCHAR
STARTCHAR approxequal
ENCODING 8776
SWIDTH 674 0
DWIDTH 13 0
BBX 11 8 1 2
BITMAP
7820
FE20
C7E0
81C0
7820
FE20
C7E0
81C0
ENDCHAR
STARTCHAR notequal
ENCODING 8800
SWIDTH 674 0
DWIDTH 13 0
BBX 11 10 1 2
BITMAP
00C0
01C0
FFE0
FFE0
0600
0E00
0E00
FFE0
FFE0
7000
ENDCHAR
STARTCHAR lessequal
ENCODING 8804
SWIDTH 674 0
DWIDTH 13 0
BBX 11 12 1 0
BITMAP
0020
01E0
0FE0
7F00
F800
FE00
1FC0
03E0
0060
0000
FFE0
FFE0
ENDCHAR
STARTCHAR greaterequal
ENCODING 8805
SWIDTH 674 0
DWIDTH 13 0
BBX 11 12 1 0
BITMAP
8000
F000
FF00
1FE0
01E0
0FE0
7F00
F800
C000
0000
FFE0
FFE0
ENDCHAR
STARTCHAR lozenge
ENCODING 9674
SWIDTH 745 0
DWIDTH 15 0
BBX 13 16 1 -1
BITMAP
0600
0700
0D80
1D80
18C0
3060
3060
6030
E038
6030
3060
38C0
18C0
0D80
0F00
0700
ENDCHAR
STARTCHAR fi
ENCODING 64257
SWIDTH 742 0
DWIDTH 15 0
BBX 14 15 0 0
BITMAP
003C
1FBC
3FBC
3F80
FFBC
FFBC
FFBC
3C3C
3C3C
3C3C
3C3C
3C3C
3C3C
3C3C
3C3C
ENDCHAR
STARTCHAR fl
ENCODING 64258
SWIDTH 742 0
DWIDTH 15 0
BBX 14 14 0 0
BITMAP
1FBC
3FBC
3FBC
FFBC
FFBC
FFBC
3C3C
3C3C
3C3C
3C3C
3C3C
3C3C
3C3C
3C3C
ENDCHAR
STARTCHAR .notdef
ENCODING -1
SWIDTH 689 0
DWIDTH 14 0
BBX 12 30 1 -9
BITMAP
FFF0
8030
8030
8030
8030
8030
8030
8030
8030
8030
8030
8F30
9FB0
B9B0
87B0
8730
8030
8E30
8E30
8030
8030
8030
8030
8030
8030
8030
8030
8030
8030
FFF0
ENDCHAR
STARTCHAR .null
ENCODING -1
SWIDTH 0 0
DWIDTH 0 0
BBX 1 1 0 0
BITMAP
00
ENDCHAR
STARTCHAR i.loclTRK
ENCODING -1
SWIDTH 287 0
DWIDTH 6 0
BBX 4 15 1 0
BITMAP
F0
F0
F0
00
F0
F0
F0
F0
F0
F0
F0
F0
F0
F0
F0
ENDCHAR
STARTCHAR f_f
ENCODING -1
SWIDTH 848 0
DWIDTH 17 0
BBX 17 14 0 0
BITMAP
1F9F80
3FBF80
3FBF80
FFFF00
FFFF00
FFFF00
3C3800
3C3800
3C3800
3C3800
3C3800
3C3800
3C3800
3C3800
ENDCHAR
STARTCHAR f_i
ENCODING -1
SWIDTH 742 0
DWIDTH 15 0
BBX 14 15 0 0
BITMAP
003C
1FBC
3FBC
3F80
FFBC
FFBC
FFBC
3C3C
3C3C
3C3C
3C3C
3C3C
3C3C
3C3C
3C3C
ENDCHAR
STARTCHAR f_l
ENCODING -1
SWIDTH 742 0
DWIDTH 15 0
BBX 14 14 0 0
BITMAP
1FBC
3FBC
3FBC
FFBC
FFBC
FFBC
3C3C
3C3C
3C3C
3C3C
3C3C
3C3C
3C3C
3C3C
ENDCHAR
STARTCHAR f_t
ENCODING -1
SWIDTH 854 0
DWIDTH 17 0
BBX 16 14 0 0
BITMAP
1F80
3FB8
3FB8
FFFF
FFFF
FFFF
3C38
3C38
3C38
3C38
3C38
3C3F
3C3F
3C1F
ENDCHAR
STARTCHAR uni0414.loclBGR
ENCODING -1
SWIDTH 1035 0
DWIDTH 21 0
BBX 20 17 0 -3
BITMAP
00F800
01F800
01FC00
03DC00
039E00
078E00
070F00
0F0700
0F0780
0E0380
1E03C0
FFFFF0
FFFFF0
FFFFF0
E00070
E00070
E00030
ENDCHAR
STARTCHAR uni041B.loclBGR
ENCODING -1
SWIDTH 937 0
DWIDTH 19 0
BBX 19 14 0 0
BITMAP
01F000
03F000
03F800
07B800
071C00
0F1C00
0E1E00
1E0E00
1C0F00
3C0700
380780
780380
7803C0
F001E0
ENDCHAR
STARTCHAR uni0424.loclBGR
ENCODING -1
SWIDTH 951 0
DWIDTH 19 0
BBX 17 18 1 -2
BITMAP
01C000
01C000
0FF800
3FFE00
7FFF00
79CF80
F1C780
F1C780
F1C780
F1C780
F1C780
F1C780
F9CF80
7FFF00
3FFE00
1FFC00
01C000
01C000
ENDCHAR
STARTCHAR uni0432.loclBGR
ENCODING -1
SWIDTH 817 0
DWIDTH 16 0
BBX 15 14 1 0
BITMAP
3FF0
7FF8
7FFC
F03C
F03C
FFFC
FFF0
FFFC
F03C
F01E
F01E
FFFC
FFFC
FFF8
ENDCHAR
STARTCHAR uni0433.loclBGR
ENCODING -1
SWIDTH 706 0
DWIDTH 14 0
BBX 13 11 1 0
BITMAP
1FC0
7FF0
F8F0
F070
1FF0
FFE0
FC00
E078
F0F0
FFF0
3FC0
ENDCHAR
STARTCHAR uni0434.loclBGR
ENCODING -1
SWIDTH 757 0
DWIDTH 15 0
BBX 13 15 1 -4
BITMAP
1F38
7FB8
FFF8
F078
E038
E038
E078
F0F8
7FF8
3FB8
0C38
F078
F8F8
7FF0
3FC0
ENDCHAR
STARTCHAR uni0436.loclBGR
ENCODING -1
SWIDTH 1051 0
DWIDTH 21 0
BBX 21 14 0 0
BITMAP
007000
007000
007000
F870F8
3C71E0
1E73C0
0F7780
07FF00
03FE00
07FF00
0F7780
1E73C0
3C71E0
F870F8
ENDCHAR
STARTCHAR uni0437.loclBGR
ENCODING -1
SWIDTH 696 0
DWIDTH 14 0
BBX 13 15 0 -4
BITMAP
1FC0
3FF0
7FF8
7878
F078
0078
07F0
07F0
07F8
0078
F078
7878
7FF8
3FF0
1FC0
ENDCHAR
STARTCHAR uni0438.loclBGR
ENCODING -1
SWIDTH 748 0
DWIDTH 15 0
BBX 13 11 1 0
BITMAP
F078
F078
F078
F078
F078
F078
F078
F078
FFF8
7FF8
3F78
ENDCHAR
STARTCHAR uni0439.loclBGR
ENCODING -1
SWIDTH 748 0
DWIDTH 15 0
BBX 13 15 1 0
BITMAP
38E0
3FE0
1FC0
0600
F078
F078
F078
F078
F078
F078
F078
F078
FFF8
7FF8
3F78
ENDCHAR
STARTCHAR uni043A.loclBGR
ENCODING -1
SWIDTH 689 0
DWIDTH 14 0
BBX 13 14 1 0
BITMAP
F000
F000
F000
F0F0
F1E0
F3C0
F780
FE00
FE00
FF00
F780
F3C0
F1E0
F0F8
ENDCHAR
STARTCHAR uni043B.loclBGR
ENCODING -1
SWIDTH 746 0
DWIDTH 15 0
BBX 15 11 0 0
BITMAP
07C0
07C0
0FE0
0EE0
1EF0
1C70
3C78
3878
783C
783C
F01E
ENDCHAR
STARTCHAR uni043F.loclBGR
ENCODING -1
SWIDTH 748 0
DWIDTH 15 0
BBX 13 11 1 0
BITMAP
F7E0
FFF0
FFF8
F078
F078
F078
F078
F078
F078
F078
F078
ENDCHAR
STARTCHAR uni0442.loclBGR
ENCODING -1
SWIDTH 1148 0
DWIDTH 23 0
BBX 21 11 1 0
BITMAP
F7E7E0
FFFFF0
FFFFF8
F07878
F07078
F07078
F07078
F07078
F07078
F07078
F07078
ENDCHAR
STARTCHAR uni0444.loclBGR
ENCODING -1
SWIDTH 815 0
DWIDTH 16 0
BBX 15 18 1 -4
BITMAP
0780
0780
0780
0780
3FF0
7FF8
F7BC
F79C
E79E
E79E
E79C
F7BC
7FFC
3FF0
0FC0
0780
0780
0780
ENDCHAR
STARTCHAR uni0446.loclBGR
ENCODING -1
SWIDTH 843 0
DWIDTH 17 0
BBX 16 14 1 -3
BITMAP
F078
F078
F078
F078
F078
F078
F078
F078
FFFF
7FFF
3F7F
0007
0007
0007
ENDCHAR
STARTCHAR uni0448.loclBGR
ENCODING -1
SWIDTH 1148 0
DWIDTH 23 0
BBX 21 11 1 0
BITMAP
F07078
F07078
F07078
F07078
F07078
F07078
F07078
F0F878
FFFFF8
7FFFF8
3F3F78
ENDCHAR
STARTCHAR uni0449.loclBGR
ENCODING -1
SWIDTH 1243 0
DWIDTH 25 0
BBX 24 14 1 -3
BITMAP
F07078
F07078
F07078
F07078
F07078
F07078
F07078
F0F878
FFFFFF
7FFFFF
3F3F7F
000007
000007
000007
ENDCHAR
STARTCHAR uni044E.loclBGR
ENCODING -1
SWIDTH 1075 0
DWIDTH 22 0
BBX 20 14 1 0
BITMAP
F00000
F00000
F00000
F03F00
F0FFC0
F1FFE0
F3C0F0
FFC0F0
FFC0F0
FFC0F0
F3C0F0
F1FFE0
F0FFC0
F03F00
ENDCHAR
STARTCHAR uni0431.loclSRB
ENCODING -1
SWIDTH 766 0
DWIDTH 15 0
BBX 14 14 1 0
BITMAP
1FFC
7FF8
FF80
F000
7F00
3FF0
FFF8
F078
E038
E038
F078
FFF8
7FF0
1FC0
ENDCHAR
STARTCHAR zero.dnom
ENCODING -1
SWIDTH 540 0
DWIDTH 11 0
BBX 9 9 1 0
BITMAP
3E00
7F00
E380
C180
C180
C180
E380
FF00
3E00
ENDCHAR
STARTCHAR one.dnom
ENCODING -1
SWIDTH 332 0
DWIDTH 7 0
BBX 7 8 0 0
BITMAP
18
78
78
18
18
18
FE
FE
ENDCHAR
STARTCHAR two.dnom
ENCODING -1
SWIDTH 499 0
DWIDTH 10 0
BBX 9 9 0 0
BITMAP
1F00
7F80
6180
E180
0780
3E00
7000
7F80
FF80
ENDCHAR
STARTCHAR three.dnom
ENCODING -1
SWIDTH 490 0
DWIDTH 10 0
BBX 9 9 0 0
BITMAP
3F00
7F80
E380
0180
0F00
0380
E180
7F80
3F00
ENDCHAR
STARTCHAR four.dnom
ENCODING -1
SWIDTH 483 0
DWIDTH 10 0
BBX 9 8 0 0
BITMAP
0F00
1F00
3B00
7300
E300
FF80
FF80
0300
ENDCHAR
STARTCHAR five.dnom
ENCODING -1
SWIDTH 494 0
DWIDTH 10 0
BBX 9 9 0 0
BITMAP
7F80
7F80
6000
7F00
7F80
0180
E180
7F80
3F00
ENDCHAR
STARTCHAR six.dnom
ENCODING -1
SWIDTH 510 0
DWIDTH 10 0
BBX 9 9 1 0
BITMAP
3E00
FF00
E380
DE00
FF00
C380
C380
FF00
7E00
ENDCHAR
STARTCHAR seven.dnom
ENCODING -1
SWIDTH 458 0
DWIDTH 9 0
BBX 9 8 0 0
BITMAP
FF80
FF80
0300
0700
0E00
0E00
1C00
3800
ENDCHAR
STARTCHAR eight.dnom
ENCODING -1
SWIDTH 518 0
DWIDTH 10 0
BBX 9 9 1 0
BITMAP
7E00
FF00
C380
C380
7E00
C380
C380
FF80
7F00
ENDCHAR
STARTCHAR nine.dnom
ENCODING -1
SWIDTH 498 0
DWIDTH 10 0
BBX 9 9 0 0
BITMAP
1C00
7F00
E180
E180
7F80
3F80
E180
7F80
3E00
ENDCHAR
STARTCHAR uni0306.cy
ENCODING -1
SWIDTH 0 0
DWIDTH 0 0
BBX 9 4 1 11
BITMAP
E380
FF80
7F00
0C00
ENDCHAR
STARTCHAR uni0306.cy.case
ENCODING -1
SWIDTH 0 0
DWIDTH 0 0
BBX 10 3 1 15
BITMAP
E3C0
FF80
3F00
ENDCHAR
STARTCHAR uni030C.alt
ENCODING -1
SWIDTH 0 0
DWIDTH 0 0
BBX 3 5 1 10
BITMAP
E0
E0
20
20
C0
ENDCHAR
STARTCHAR uni0326.case
ENCODING -1
SWIDTH 0 0
DWIDTH 0 0
BBX 4 5 1 -6
BITMAP
F0
F0
F0
30
E0
ENDCHAR
STARTCHAR caron.alt
ENCODING -1
SWIDTH 313 0
DWIDTH 6 0
BBX 4 6 1 8
BITMAP
F0
F0
F0
30
20
E0
ENDCHAR
STARTCHAR dieresis.case
ENCODING -1
SWIDTH 567 0
DWIDTH 11 0
BBX 9 3 1 15
BITMAP
F380
F380
F380
ENDCHAR
STARTCHAR dotaccent.case
ENCODING -1
SWIDTH 309 0
DWIDTH 6 0
BBX 4 3 1 15
BITMAP
F0
F0
F0
ENDCHAR
STARTCHAR grave.case
ENCODING -1
SWIDTH 457 0
DWIDTH 9 0
BBX 7 3 1 15
BITMAP
F8
3C
1E
ENDCHAR
STARTCHAR acute.case
ENCODING -1
SWIDTH 457 0
DWIDTH 9 0
BBX 7 3 1 15
BITMAP
3E
78
F0
ENDCHAR
STARTCHAR hungarumlaut.case
ENCODING -1
SWIDTH 660 0
DWIDTH 13 0
BBX 11 3 1 15
BITMAP
3DE0
7BC0
F780
ENDCHAR
STARTCHAR circumflex.case
ENCODING -1
SWIDTH 639 0
DWIDTH 13 0
BBX 10 3 1 15
BITMAP
1F00
3F80
F3C0
ENDCHAR
STARTCHAR caron.case
ENCODING -1
SWIDTH 639 0
DWIDTH 13 0
BBX 10 3 1 15
BITMAP
F1C0
7B80
1F00
ENDCHAR
STARTCHAR breve.case
ENCODING -1
SWIDTH 568 0
DWIDTH 11 0
BBX 9 3 1 15
BITMAP
FF80
7F80
3E00
ENDCHAR
STARTCHAR ring.case
ENCODING -1
SWIDTH 453 0
DWIDTH 9 0
BBX 7 5 1 15
BITMAP
3C
7E
C6
7E
3C
ENDCHAR
STARTCHAR tilde.case
ENCODING -1
SWIDTH 611 0
DWIDTH 12 0
BBX 10 3 1 15
BITMAP
79C0
7FC0
FF80
ENDCHAR
STARTCHAR macron.case
ENCODING -1
SWIDTH 562 0
DWIDTH 11 0
BBX 9 3 1 15
BITMAP
FF80
FF80
FF80
ENDCHAR
STARTCHAR cedilla.case
ENCODING -1
SWIDTH 453 0
DWIDTH 9 0
BBX 7 5 1 -4
BITMAP
38
38
7E
8E
FC
ENDCHAR
STARTCHAR ogonek.case
ENCODING -1
SWIDTH 404 0
DWIDTH 8 0
BBX 6 5 1 -5
BITMAP
3C
70
E0
FC
7C
ENDCHAR
ENDFONT
